<?xml version="1.0" standalone="no"?>
<!DOCTYPE svg PUBLIC "-//W3C//DTD SVG 20010904//EN"
 "http://www.w3.org/TR/2001/REC-SVG-20010904/DTD/svg10.dtd">
<svg version="1.0" xmlns="http://www.w3.org/2000/svg"
 width="384.000000pt" height="384.000000pt" viewBox="0 0 384.000000 384.000000"
 preserveAspectRatio="xMidYMid meet">

<g transform="translate(0.000000,384.000000) scale(0.100000,-0.100000)"
fill="#000000" stroke="none">
<path d="M530 3787 l0 -54 -64 -11 c-90 -17 -244 -70 -364 -127 l-102 -48 0
-1029 0 -1028 20 0 c26 0 70 -22 91 -46 9 -11 24 -50 33 -89 18 -78 95 -538
90 -543 -4 -6 -102 32 -174 67 l-62 29 5 -66 c3 -37 12 -101 21 -142 20 -94
20 -251 0 -355 -8 -44 -17 -102 -20 -130 l-4 -50 15 40 c15 38 37 160 52 290
l7 60 8 -55 c15 -100 -7 -233 -53 -319 -23 -44 -29 -67 -29 -118 l0 -63 420 0
c231 0 420 2 420 5 0 3 -12 29 -26 58 l-26 52 59 -57 c32 -32 64 -58 70 -58 6
0 -26 37 -72 83 -78 79 -85 88 -110 168 -23 72 -28 110 -36 269 -10 233 -10
234 -58 360 -69 183 -91 274 -107 440 -7 85 -14 191 -14 235 0 88 6 102 89
210 53 69 102 174 133 281 18 64 22 104 23 215 l0 135 54 -75 c78 -109 130
-171 259 -303 108 -110 114 -118 108 -150 l-6 -33 14 29 13 29 264 -244 c145
-134 300 -286 346 -338 145 -165 261 -358 323 -538 l32 -92 -38 -45 c-37 -45
-127 -128 -218 -201 l-49 -40 -159 -5 c-156 -5 -160 -6 -180 -30 -23 -29 -79
-138 -108 -210 -11 -28 -29 -73 -40 -100 -11 -28 -16 -50 -12 -50 5 0 28 48
52 106 25 58 48 108 52 110 4 3 38 -35 75 -82 37 -48 79 -99 92 -113 l23 -26
-17 30 c-10 17 -33 51 -52 78 -18 26 -34 58 -36 70 -2 19 3 22 33 21 41 -1
230 -83 241 -105 4 -8 11 -31 14 -51 l6 -38 231 0 231 0 -8 48 c-4 26 -6 61
-5 77 1 17 3 37 3 46 1 17 62 -14 224 -114 l91 -57 296 0 c239 0 297 3 303 14
14 23 86 53 125 52 20 -1 34 2 32 6 -3 4 -1 8 5 8 6 0 15 -10 22 -21 7 -13 7
-19 1 -15 -6 3 -14 1 -18 -5 -4 -8 -3 -9 4 -5 6 4 21 -3 32 -14 40 -40 38 -15
-4 55 -58 94 -96 194 -96 247 1 24 7 70 15 103 8 33 15 105 15 161 l0 101 93
6 c133 9 310 65 382 120 38 29 8 27 -48 -3 -190 -103 -428 -125 -642 -59 -67
20 -148 19 -161 -3 -3 -5 6 -22 20 -37 51 -53 28 -81 -73 -89 -73 -5 -141 3
-141 17 0 5 31 6 69 3 82 -6 140 4 148 24 3 8 -6 26 -21 41 -14 14 -26 32 -26
39 0 16 31 34 60 34 30 0 18 14 -43 48 -75 42 -159 122 -210 200 -228 345 -55
768 373 913 82 28 112 33 223 37 159 5 272 -18 401 -82 52 -27 86 -39 86 -31
0 16 -126 78 -215 105 -38 11 -102 23 -141 27 l-73 6 -6 56 c-12 105 -56 301
-91 409 -104 315 -265 526 -513 671 -60 36 -186 81 -225 81 -36 0 -59 38 -51
83 10 52 62 72 185 72 89 0 100 -2 171 -36 83 -40 142 -87 165 -131 9 -17 18
-27 21 -24 14 14 -69 156 -113 195 -111 97 -291 135 -415 86 -12 -5 -19 4 -29
40 -27 98 -103 179 -216 232 -53 25 -70 28 -164 28 -94 0 -111 -3 -165 -28
-51 -24 -165 -119 -165 -137 0 -4 31 9 68 27 167 83 376 60 495 -55 32 -31 97
-136 97 -158 0 -18 -24 9 -68 77 l-50 76 -53 6 c-30 4 -75 7 -100 7 -44 0 -50
-3 -100 -57 -28 -32 -70 -81 -92 -110 l-39 -52 -66 53 c-280 222 -652 358
-988 358 -49 0 -111 -3 -136 -7 l-45 -7 -16 41 c-19 47 -52 57 -60 19 l-4 -23
-8 23 c-6 19 -14 22 -56 22 l-49 0 0 -53z m370 -244 c-75 -7 -210 -36 -227
-48 -17 -12 -15 -16 21 -47 l39 -34 -43 -13 c-24 -7 -90 -33 -147 -57 l-104
-45 -43 36 c-24 19 -48 35 -54 35 -16 0 -163 -112 -243 -186 l-74 -68 70 73
c82 86 225 195 310 238 97 49 253 95 395 117 14 2 50 3 80 3 30 0 39 -2 20 -4z
m1661 -391 c33 -63 59 -115 57 -117 -2 -1 -39 -5 -83 -7 l-81 -4 -57 110 c-32
61 -58 114 -57 118 0 7 89 16 138 14 19 -1 34 -21 83 -114z m-1209 -4 c90 -70
221 -191 338 -313 72 -75 180 -204 180 -215 0 -5 -51 -25 -112 -46 -98 -32
-180 -62 -484 -179 l-61 -24 -40 57 c-84 119 -245 312 -379 456 -77 81 -140
152 -142 156 -7 17 513 175 590 179 9 1 58 -31 110 -71z m420 -957 c57 -27
126 -56 153 -65 28 -9 56 -20 64 -25 17 -11 -143 -41 -221 -41 -62 0 -76 -14
-30 -31 39 -15 147 -4 241 26 79 25 82 25 143 10 142 -36 154 -47 182 -168 21
-91 21 -93 -14 -63 -42 35 -91 47 -137 34 -80 -21 -178 -82 -257 -160 -44 -43
-80 -77 -81 -76 -20 24 -124 259 -200 453 -34 88 -72 184 -83 213 l-22 52 79
-55 c44 -31 126 -78 183 -104z m279 -423 c11 -11 19 -24 19 -28 0 -9 -26 -20
-48 -20 -14 0 -13 2 2 13 16 12 16 14 2 26 -9 7 -13 17 -10 22 8 14 15 11 35
-13z m312 -163 c77 -202 80 -215 74 -310 -8 -143 -75 -322 -190 -503 l-41 -65
-22 84 c-39 144 -73 226 -206 492 -107 214 -127 261 -117 274 18 20 109 65
199 97 41 14 86 32 99 38 13 7 55 22 95 33 l71 20 12 -60 c6 -33 18 -78 26
-100z m-773 -21 c0 -8 -5 -12 -10 -9 -6 4 -8 11 -5 16 9 14 15 11 15 -7z m50
-24 c0 -5 -5 -10 -11 -10 -5 0 -7 5 -4 10 3 6 8 10 11 10 2 0 4 -4 4 -10z m68
-80 c7 0 10 5 7 10 -3 6 -2 10 3 10 5 0 9 -14 10 -31 l1 -31 -25 23 c-13 12
-24 28 -24 36 0 7 -10 13 -22 14 -22 0 -22 1 -3 9 16 6 22 3 29 -16 6 -13 16
-24 24 -24z m139 33 c-4 -3 1 -16 10 -27 15 -17 15 -18 1 -8 -13 10 -17 10
-21 0 -3 -7 -4 -2 -2 12 4 32 4 30 12 30 3 0 3 -3 0 -7z m26 -68 c-3 -9 -8
-14 -10 -11 -3 3 -2 9 2 15 9 16 15 13 8 -4z m-119 -17 c-6 -10 -4 -10 8 0 13
10 16 9 21 -10 8 -30 3 -33 -22 -11 -23 19 -27 33 -10 33 5 0 7 -6 3 -12z m91
-25 c0 -16 -5 -28 -12 -27 -28 2 -33 4 -33 15 0 5 4 8 9 4 5 -3 12 4 16 15 9
29 21 25 20 -7z m1 -52 c9 7 12 6 10 -5 -4 -26 -12 -27 -32 -4 -10 13 -12 17
-4 11 9 -9 17 -9 26 -2z m98 -30 c15 -27 14 -28 -9 -23 -14 2 -22 9 -19 16 3
6 -2 2 -11 -9 -17 -20 -17 -20 -10 5 6 21 21 39 32 40 1 0 9 -13 17 -29z
m-1439 -26 c-2 -14 1 -27 6 -31 5 -3 9 -22 9 -42 0 -20 7 -89 15 -152 9 -63
13 -125 10 -137 -3 -14 -1 -23 6 -23 6 0 10 -12 8 -27 -1 -16 2 -36 6 -46 4
-9 5 -26 2 -37 -3 -11 -1 -23 4 -26 5 -3 9 -13 8 -22 0 -14 -2 -13 -9 3 -8 18
-9 18 -9 2 -1 -10 6 -20 14 -23 17 -7 20 -30 5 -39 -5 -3 -7 0 -4 9 4 11 0 13
-15 9 -13 -3 -18 -10 -14 -21 4 -10 3 -14 -1 -10 -4 3 -19 0 -33 -7 -15 -8
-31 -11 -36 -8 -5 3 -13 -1 -18 -8 -6 -10 -9 -11 -9 -1 0 6 -5 12 -10 12 -6 0
-8 -11 -4 -25 5 -19 2 -25 -11 -25 -9 0 -26 -11 -37 -25 -16 -20 -23 -23 -34
-14 -11 9 -14 8 -14 -7 0 -15 -2 -16 -9 -5 -7 11 -11 10 -20 -5 -10 -17 -10
-17 -10 6 0 14 -6 53 -14 88 -13 57 -13 63 1 57 12 -4 12 -2 4 8 -7 8 -8 18
-4 22 4 5 2 5 -5 1 -15 -8 -16 -2 -42 154 -27 168 -28 167 16 175 20 4 42 13
48 20 5 8 17 15 25 17 19 4 34 18 49 46 7 12 16 20 20 17 5 -2 19 11 32 30 13
18 34 38 46 44 15 7 21 17 18 32 -4 19 1 39 9 39 2 0 2 -11 1 -25z m1375 5 c0
-5 -2 -10 -4 -10 -3 0 -8 5 -11 10 -3 6 -1 10 4 10 6 0 11 -4 11 -10z m35 -50
c-4 -7 3 -9 19 -6 15 3 24 1 21 -5 -4 -5 -11 -6 -17 -3 -8 5 -9 -1 -5 -17 l6
-24 -19 25 c-16 22 -18 40 -4 40 3 0 2 -5 -1 -10z m100 -70 c3 -5 1 -10 -4
-10 -6 0 -11 5 -11 10 0 6 2 10 4 10 3 0 8 -4 11 -10z m106 -237 c13 -16 12
-17 -3 -4 -17 13 -22 21 -14 21 2 0 10 -8 17 -17z m12 -58 c-3 -9 -8 -14 -10
-11 -3 3 -2 9 2 15 9 16 15 13 8 -4z m-1982 -102 c12 -18 27 -56 34 -84 17
-62 31 -254 19 -246 -5 3 -9 -16 -10 -41 -1 -48 -39 -152 -56 -152 -5 0 -7 -4
-4 -8 3 -5 -15 -25 -39 -46 -25 -20 -45 -36 -45 -34 0 2 9 28 21 57 40 106 42
285 5 422 -26 94 -54 193 -62 213 -13 33 112 -41 137 -81z m2007 27 c0 -8 -6
-1 -13 15 -7 17 -10 34 -7 40 6 10 20 -27 20 -55z m585 33 c-42 -8 -24 -23 27
-23 28 0 50 -4 50 -9 0 -14 43 -22 51 -9 7 11 25 -29 21 -46 -2 -5 5 -6 14 -2
11 4 15 2 11 -8 -3 -8 1 -20 8 -26 8 -7 12 -17 8 -23 -3 -5 -1 -7 4 -4 6 4 16
0 23 -8 10 -12 9 -15 -7 -15 -11 0 -23 3 -26 6 -9 9 -86 11 -80 2 7 -12 -36
-9 -59 3 -15 8 -19 8 -14 0 4 -6 0 -11 -8 -11 -22 0 -20 -33 3 -54 15 -14 38
-17 117 -16 124 1 144 2 138 12 -3 4 4 11 14 17 14 7 17 18 14 45 -3 22 0 36
7 36 6 0 8 -8 4 -17 -5 -15 -3 -14 10 2 16 20 16 20 17 -1 0 -11 -5 -25 -12
-32 -6 -6 -9 -15 -5 -18 10 -11 18 1 27 38 6 27 8 19 9 -37 2 -129 -40 -246
-118 -328 l-50 -53 -71 -2 -71 -2 35 67 c57 108 21 110 -73 4 -30 -34 -61 -61
-68 -61 -8 0 -12 -3 -10 -7 3 -5 -18 -8 -46 -7 -29 1 -55 -4 -59 -10 -5 -7 -8
-4 -8 6 0 11 -5 15 -14 12 -8 -3 -37 7 -64 22 l-50 28 39 28 c78 56 115 178
121 396 1 57 4 98 7 91 2 -8 6 -7 12 2 7 11 9 10 9 -4 0 -11 5 -17 13 -14 6 2
11 10 10 16 -2 6 4 11 13 11 8 0 12 -4 9 -10 -3 -5 1 -10 10 -10 11 0 15 5 11
15 -4 12 3 15 32 14 23 -1 29 -3 15 -6z m182 -33 c9 8 15 8 20 0 4 -6 1 -9 -6
-8 -7 2 -13 -2 -14 -9 0 -6 -4 -15 -8 -20 -5 -4 -7 -1 -5 7 2 9 -3 14 -11 12
-9 -2 -11 3 -7 13 3 9 7 22 7 28 1 7 4 2 6 -11 4 -18 8 -21 18 -12z m179 -81
c3 -3 -8 -5 -24 -4 -17 0 -30 3 -30 8 0 8 45 5 54 -4z m53 -15 c-3 -3 -12 -4
-19 -1 -8 3 -5 6 6 6 11 1 17 -2 13 -5z m63 -29 c0 -7 -30 -13 -34 -7 -3 4 4
9 15 9 10 1 19 0 19 -2z m-78 -51 c1 -17 8 -31 15 -31 16 0 16 2 1 27 -11 17
-10 22 2 30 11 7 16 4 18 -11 2 -12 12 -23 22 -26 9 -3 23 -16 29 -29 8 -19
17 -23 35 -20 23 4 24 2 15 -20 -13 -37 -11 -43 11 -39 15 3 20 -2 20 -16 0
-14 4 -18 13 -13 9 6 9 4 -1 -8 -7 -8 -10 -22 -7 -31 10 -26 -20 -82 -45 -84
-12 -1 -28 -10 -36 -20 -7 -10 -14 -15 -14 -11 0 4 -12 3 -27 -3 -43 -17 -155
-49 -185 -54 l-27 -3 39 49 c22 28 48 69 58 92 26 59 56 186 53 227 -1 19 0
32 3 29 3 -3 6 -19 8 -35z m185 -6 c-3 -7 -5 -2 -5 12 0 14 2 19 5 13 2 -7 2
-19 0 -25z m-3260 -50 c-3 -7 -5 -2 -5 12 0 14 2 19 5 13 2 -7 2 -19 0 -25z
m3243 -38 c0 -5 -2 -10 -4 -10 -3 0 -8 5 -11 10 -3 6 -1 10 4 10 6 0 11 -4 11
-10z m17 -22 c-3 -7 -5 -2 -5 12 0 14 2 19 5 13 2 -7 2 -19 0 -25z m-1612
-168 c3 5 16 10 29 10 17 0 28 -10 41 -40 24 -53 59 -91 120 -128 38 -24 45
-32 28 -32 -12 0 -27 8 -32 18 -6 9 -11 12 -11 5 0 -7 -7 -10 -16 -6 -8 3 -13
12 -9 21 5 13 3 13 -12 1 -13 -11 -15 -11 -9 -1 5 9 3 12 -5 11 -21 -5 -60 21
-53 33 4 6 3 8 -4 4 -16 -10 -74 44 -69 65 3 13 0 16 -11 12 -10 -4 -13 -2 -8
5 4 7 2 12 -3 12 -6 0 -11 5 -11 11 0 8 4 8 14 0 10 -8 16 -9 21 -1z m418 -72
c16 -12 16 -15 -5 -45 -13 -17 -31 -37 -42 -43 -29 -18 -100 -14 -144 9 -52
26 -104 70 -96 82 8 14 267 11 287 -3z"/>
<path d="M1220 3202 c0 -5 10 -17 21 -28 22 -19 22 -19 10 3 -12 24 -31 39
-31 25z"/>
<path d="M1157 3184 c-3 -3 -3 -12 0 -20 6 -17 -18 -18 -37 -1 -8 6 -7 3 3 -9
20 -25 21 -31 5 -37 -7 -2 -5 -3 4 -2 10 2 21 -1 24 -6 3 -5 10 -9 16 -9 6 0
4 8 -5 18 -19 21 -13 32 17 33 19 0 18 1 -4 11 -24 10 -24 10 -5 18 15 6 16 9
4 9 -9 1 -18 -2 -22 -5z"/>
<path d="M1060 3152 c0 -6 5 -14 11 -17 6 -4 8 -13 5 -21 -3 -8 -1 -14 3 -14
18 0 17 26 0 44 -11 11 -19 14 -19 8z"/>
<path d="M1007 3114 c13 -21 13 -24 0 -24 -17 0 -40 24 -30 33 3 4 1 7 -5 7
-16 0 -15 -10 5 -32 14 -16 14 -18 1 -18 -18 0 -41 24 -31 33 3 4 1 7 -5 7
-17 0 -15 -15 3 -30 8 -7 12 -16 9 -21 -2 -5 13 -2 34 5 29 11 43 11 51 3 8
-8 11 -8 11 0 0 7 -5 15 -10 18 -6 4 -8 10 -6 13 2 4 -6 12 -19 18 -23 11 -24
11 -8 -12z"/>
<path d="M1205 3130 c3 -5 14 -10 23 -10 15 0 15 2 2 10 -20 13 -33 13 -25 0z"/>
<path d="M1258 3133 c7 -3 16 -2 19 1 4 3 -2 6 -13 5 -11 0 -14 -3 -6 -6z"/>
<path d="M900 3075 c35 -36 56 -49 26 -16 -10 10 -14 21 -9 23 4 3 2 3 -5 2
-7 -2 -15 3 -18 11 -4 8 -11 15 -17 15 -6 0 4 -16 23 -35z"/>
<path d="M834 3075 c8 -9 13 -23 10 -33 -5 -16 -5 -16 5 0 13 20 4 48 -16 48
-12 0 -12 -2 1 -15z"/>
<path d="M772 3070 c3 -16 37 -45 44 -38 2 3 -8 15 -22 29 -16 15 -24 19 -22
9z"/>
<path d="M1069 3069 c-31 -12 -53 -53 -40 -76 6 -11 3 -26 -10 -47 -22 -37
-25 -103 -5 -150 7 -18 17 -62 21 -97 8 -67 15 -87 41 -113 21 -22 49 -6 65
37 l12 33 35 -18 c20 -10 47 -18 59 -18 16 0 27 -8 33 -25 7 -19 17 -25 40
-25 42 0 103 27 97 42 -7 21 42 47 78 41 63 -10 114 69 54 84 -14 4 -19 12
-17 27 3 18 11 21 53 24 27 1 60 10 74 19 l25 16 -27 23 c-29 25 -126 64 -160
64 -12 0 -39 12 -60 26 -46 31 -116 64 -137 64 -8 0 11 -11 43 -24 31 -13 73
-36 92 -50 19 -15 57 -31 84 -36 62 -12 112 -32 129 -53 11 -13 10 -17 -7 -26
-11 -6 -40 -11 -65 -11 -35 0 -48 -5 -56 -19 -16 -31 -12 -48 15 -55 34 -9 31
-32 -6 -52 -25 -13 -33 -13 -40 -3 -10 17 -99 -29 -92 -48 5 -13 -16 -24 -71
-37 -27 -7 -28 -5 -22 19 6 24 4 25 -32 25 -22 0 -59 11 -85 24 -47 25 -57 25
-57 -5 0 -9 -8 -27 -18 -39 l-17 -22 -19 21 c-13 15 -21 44 -26 94 -4 39 -14
89 -23 109 -23 52 -21 89 8 131 13 20 20 39 15 42 -18 11 -10 45 15 61 17 11
34 14 52 9 l28 -7 -27 -14 c-16 -8 -28 -19 -28 -24 0 -13 17 -13 26 1 3 6 17
8 30 5 29 -8 33 13 7 36 -25 22 -54 28 -84 17z"/>
<path d="M725 3060 c-11 -5 -14 -9 -7 -9 9 -1 11 -8 6 -23 -6 -19 -4 -21 7
-11 8 6 23 13 34 16 17 4 17 5 -4 6 -16 1 -21 5 -17 16 3 8 4 15 3 14 -1 0
-11 -4 -22 -9z"/>
<path d="M878 3053 c7 -3 16 -2 19 1 4 3 -2 6 -13 5 -11 0 -14 -3 -6 -6z"/>
<path d="M750 3010 c0 -6 7 -13 15 -17 24 -9 27 1 5 15 -13 8 -20 8 -20 2z"/>
<path d="M1258 3003 c7 -3 16 -2 19 1 4 3 -2 6 -13 5 -11 0 -14 -3 -6 -6z"/>
<path d="M1264 2979 c-3 -6 -12 -8 -20 -5 -8 3 -14 -1 -14 -8 0 -8 -3 -21 -6
-29 -9 -26 25 -48 69 -45 71 5 77 57 9 85 -21 9 -33 9 -38 2z m26 -30 c0 -6 8
-8 19 -4 11 3 22 1 26 -5 12 -19 -16 -40 -52 -40 -35 0 -50 17 -39 45 6 17 46
21 46 4z"/>
<path d="M1091 2923 c-1 -7 -9 -13 -20 -13 -11 0 -21 -9 -24 -21 -3 -12 -10
-18 -16 -15 -6 4 -7 -5 0 -26 5 -18 9 -34 9 -34 0 -1 7 -5 16 -8 14 -5 15 -4
4 9 -9 11 -10 18 -1 29 6 8 10 20 9 27 -2 7 9 17 24 22 35 13 60 -6 56 -42 -2
-20 -12 -29 -38 -38 -33 -11 -34 -12 -7 -12 28 -1 67 29 67 52 0 22 -30 57
-50 57 -10 0 -21 6 -23 13 -4 10 -6 10 -6 0z"/>
<path d="M1279 2871 c13 -8 13 -12 1 -28 -13 -17 -13 -17 4 -1 19 16 15 38 -7
38 -8 0 -7 -4 2 -9z"/>
<path d="M1192 2858 c-15 -15 -16 -38 -1 -38 5 0 7 5 4 10 -4 6 -1 17 5 25 15
18 9 20 -8 3z"/>
<path d="M1223 2823 c9 -2 23 -2 30 0 6 3 -1 5 -18 5 -16 0 -22 -2 -12 -5z"/>
<path d="M1750 2700 c12 -23 0 -27 -29 -9 -13 9 -23 9 -37 0 -17 -10 -16 -10
9 -5 31 7 37 -9 10 -26 -15 -9 -14 -10 6 -4 22 6 23 4 17 -21 -4 -17 -3 -24 4
-20 5 3 10 17 10 30 0 12 7 25 15 29 8 3 15 2 15 -2 0 -4 12 -20 26 -37 29
-35 22 -18 -20 43 -30 44 -44 56 -26 22z"/>
<path d="M1645 2665 c45 -73 60 -95 67 -95 5 0 -9 24 -29 53 -43 61 -65 85
-38 42z"/>
<path d="M1582 2651 c-11 -7 -9 -16 10 -45 26 -40 35 -43 64 -21 18 14 17 15
-8 5 -34 -12 -49 7 -22 27 18 13 17 14 -8 8 -21 -6 -28 -4 -28 8 0 8 6 18 13
20 6 3 8 6 2 6 -5 0 -16 -3 -23 -8z"/>
<path d="M1508 2605 c7 -14 7 -26 0 -39 -5 -9 -8 -20 -5 -23 3 -2 10 5 17 16
6 12 18 21 28 22 14 0 14 2 2 6 -8 3 -24 13 -34 22 -18 15 -18 15 -8 -4z"/>
<path d="M1555 2534 c-52 -25 -47 -26 18 -3 20 7 37 17 37 21 0 10 4 11 -55
-18z"/>
<path d="M1476 2526 c8 -22 -22 -32 -43 -15 -15 13 -15 12 -4 -8 13 -26 15
-27 42 -13 20 11 25 35 9 45 -6 3 -7 -1 -4 -9z"/>
<path d="M1330 2482 c20 -40 -8 -56 -43 -24 -19 17 -20 16 -8 -6 9 -17 19 -22
39 -20 32 4 39 26 17 53 -16 19 -16 19 -5 -3z"/>
<path d="M1371 2475 c12 -12 21 -13 40 -5 24 10 24 10 -3 5 -16 -3 -28 -1 -28
5 0 5 -5 10 -12 10 -8 0 -7 -5 3 -15z"/>
<path d="M1180 2467 c0 -25 33 -67 53 -67 38 0 49 13 32 36 -15 19 -16 19 -13
-1 5 -34 -29 -30 -52 7 -11 18 -20 29 -20 25z"/>
<path d="M1660 2067 c0 -14 47 -63 54 -56 2 2 -9 19 -25 37 -16 18 -29 26 -29
19z"/>
<path d="M2020 1850 c-19 -11 -30 -19 -25 -19 6 0 26 8 45 19 19 11 31 19 25
19 -5 0 -26 -8 -45 -19z"/>
<path d="M2201 1033 c-2 -21 11 -43 25 -43 8 0 14 10 13 23 0 21 -1 21 -9 2
-8 -19 -8 -19 -18 5 -6 14 -11 20 -11 13z"/>
<path d="M430 779 c0 -11 5 -17 10 -14 6 3 10 13 10 21 0 8 -4 14 -10 14 -5 0
-10 -9 -10 -21z"/>
<path d="M270 781 c0 -6 4 -13 10 -16 6 -3 7 1 4 9 -7 18 -14 21 -14 7z"/>
<path d="M522 760 c0 -19 2 -27 5 -17 2 9 2 25 0 35 -3 9 -5 1 -5 -18z"/>
<path d="M470 770 c13 -8 12 -10 -4 -10 -15 0 -17 -3 -9 -11 6 -6 16 -8 22 -5
17 11 13 36 -6 36 -15 0 -16 -2 -3 -10z"/>
<path d="M490 716 c0 -2 7 -6 15 -10 8 -3 15 -1 15 4 0 6 -7 10 -15 10 -8 0
-15 -2 -15 -4z"/>
<path d="M402 685 c0 -16 2 -22 5 -12 2 9 2 23 0 30 -3 6 -5 -1 -5 -18z"/>
<path d="M340 650 c0 -11 2 -20 4 -20 2 0 6 9 9 20 3 11 1 20 -4 20 -5 0 -9
-9 -9 -20z"/>
<path d="M1641 3734 c0 -11 3 -14 6 -6 3 7 2 16 -1 19 -3 4 -6 -2 -5 -13z"/>
<path d="M1158 1891 c-1 -5 -42 -31 -91 -59 -98 -56 -302 -128 -392 -138 -87
-10 -103 -24 -20 -18 182 14 352 56 433 106 32 20 92 91 92 110 0 11 -17 10
-22 -1z"/>
<path d="M3175 1783 c6 -41 6 -42 -27 -46 l-33 -4 32 -1 c32 -2 32 -3 36 -59
2 -43 4 -35 5 32 1 50 -3 97 -9 105 -7 11 -8 4 -4 -27z"/>
<path d="M3423 1790 c4 -18 8 -80 9 -139 2 -94 2 -97 5 -29 4 75 5 77 31 81
l27 4 -27 2 c-27 1 -28 4 -28 50 0 28 -5 53 -12 57 -8 5 -9 -2 -5 -26z"/>
<path d="M3683 1799 c4 -13 7 -76 8 -139 0 -74 3 -108 9 -95 5 11 9 46 9 77 1
50 3 57 24 61 19 4 18 4 -5 6 -27 1 -28 4 -28 50 0 28 -5 53 -12 57 -8 5 -9 0
-5 -17z"/>
<path d="M3007 1793 c55 -7 54 -72 -3 -109 -13 -9 -22 -19 -19 -22 3 -3 20 9
39 27 29 29 34 30 46 16 7 -9 23 -21 34 -26 14 -7 9 0 -11 21 -22 21 -33 40
-33 60 0 25 4 29 33 33 17 2 -2 4 -43 4 -41 0 -61 -2 -43 -4z"/>
<path d="M3240 1783 c25 -10 30 -25 30 -90 0 -50 -3 -62 -17 -66 -10 -3 19 -5
65 -6 45 0 82 3 82 8 0 5 -9 7 -20 4 -19 -5 -20 0 -20 70 0 64 3 76 18 80 9 3
-21 5 -68 5 -47 0 -78 -2 -70 -5z m104 -34 c3 -17 6 -51 6 -75 0 -44 0 -44
-35 -44 l-35 0 0 75 0 75 29 0 c24 0 29 -5 35 -31z"/>
<path d="M3553 1783 l57 -4 0 -40 c0 -33 -6 -47 -31 -69 -16 -16 -39 -32 -50
-35 -10 -4 -19 -11 -19 -16 0 -13 58 18 86 47 19 18 24 34 24 74 l0 50 -62 -2
-63 -2 58 -3z"/>
<path d="M3032 1598 l-2 -48 88 2 87 2 -82 3 -82 4 -4 42 -4 42 -1 -47z"/>
<path d="M3750 1585 c0 -8 5 -15 10 -15 6 0 10 7 10 15 0 8 -4 15 -10 15 -5 0
-10 -7 -10 -15z"/>
<path d="M3800 1585 c0 -8 5 -15 10 -15 6 0 10 7 10 15 0 8 -4 15 -10 15 -5 0
-10 -7 -10 -15z"/>
<path d="M1060 1560 c8 -5 30 -10 49 -10 45 0 37 6 -19 14 -31 4 -40 3 -30 -4z"/>
<path d="M910 1520 c-70 -15 -146 -57 -211 -118 -84 -78 -123 -162 -75 -162 8
0 56 20 108 45 104 50 239 89 280 80 14 -4 29 -2 32 3 3 5 18 7 32 4 20 -4 25
-2 19 8 -6 10 0 11 26 7 45 -8 249 15 250 28 1 6 -32 23 -73 38 -163 62 -299
85 -388 67z m40 -45 c0 -8 8 -15 18 -15 14 0 15 -2 2 -10 -12 -8 -12 -10 -1
-10 11 0 11 -3 1 -15 -7 -8 -24 -15 -37 -15 -20 0 -23 3 -14 13 6 8 8 16 5 20
-8 8 5 47 17 47 5 0 9 -7 9 -15z"/>
<path d="M2988 1498 c-2 -15 -18 -30 -47 -45 -24 -12 -46 -25 -50 -29 -7 -7
59 19 86 35 13 7 30 2 66 -16 27 -13 51 -22 53 -20 2 2 -14 12 -37 22 -41 19
-65 47 -54 65 3 6 2 10 -4 10 -5 0 -11 -10 -13 -22z"/>
<path d="M3347 1485 c-4 -22 -6 -67 -6 -100 l2 -60 8 80 c10 89 7 142 -4 80z"/>
<path d="M3615 1443 c-15 -190 -15 -198 -6 -178 9 22 26 255 18 255 -3 0 -8
-35 -12 -77z"/>
<path d="M3218 1504 c-5 -4 -8 -20 -8 -36 0 -21 -11 -39 -37 -63 -21 -19 -34
-35 -28 -35 5 0 23 14 40 30 l31 30 24 -25 c13 -14 28 -25 34 -25 5 0 -2 12
-16 28 -17 17 -28 41 -30 65 -2 22 -6 35 -10 31z"/>
<path d="M3430 1476 c0 -13 -3 -38 -6 -55 -6 -29 -5 -31 25 -31 28 0 31 -3 31
-29 0 -28 -3 -30 -42 -34 -24 -2 0 -3 52 -3 52 0 74 1 48 3 -45 4 -48 6 -48
33 0 25 4 29 33 33 19 2 10 4 -25 5 l-58 2 0 45 0 44 63 4 62 3 -67 2 c-65 2
-68 1 -68 -22z"/>
<path d="M3713 1493 c34 -4 37 -7 37 -34 0 -39 -23 -82 -54 -103 -15 -9 -26
-22 -26 -28 0 -7 18 6 40 27 l40 39 37 -35 37 -34 -32 40 c-25 30 -32 49 -32
82 0 41 1 42 38 46 20 2 1 4 -43 4 -44 0 -63 -2 -42 -4z"/>
<path d="M2985 1413 c-6 -19 -16 -23 -64 -26 -31 -2 0 -3 69 -3 69 0 99 1 68
3 -49 3 -57 7 -61 26 l-4 22 -8 -22z"/>
<path d="M2930 1337 c-31 -16 -39 -56 -14 -74 10 -7 39 -13 66 -13 78 0 117
57 58 87 -32 16 -78 16 -110 0z m101 -7 c21 -12 25 -40 7 -58 -16 -16 -90 -15
-113 2 -49 36 47 87 106 56z"/>
<path d="M3186 1328 c-3 -13 -6 -33 -6 -45 0 -22 3 -23 88 -21 l87 2 -80 3
-80 4 3 39 c4 44 -2 53 -12 18z"/>
<path d="M3012 1163 c0 -38 3 -54 5 -36 3 26 9 33 31 36 l27 4 -28 2 c-26 1
-28 3 -22 31 4 19 3 30 -4 30 -7 0 -10 -25 -9 -67z"/>
<path d="M3197 1207 c-6 -21 -19 -33 -52 -47 -25 -11 -45 -22 -45 -24 0 -6 39
8 79 28 16 9 32 11 37 6 5 -5 27 -16 49 -25 35 -14 38 -14 21 0 -11 8 -25 15
-31 15 -16 0 -42 31 -47 55 -3 17 -5 15 -11 -8z"/>
<path d="M3551 1118 c1 -62 4 -124 8 -138 4 -14 7 37 7 112 -1 76 -4 138 -8
138 -5 0 -8 -51 -7 -112z"/>
<path d="M3801 1123 c1 -60 5 -121 10 -138 5 -19 6 1 2 52 -4 73 -3 82 14 86
17 4 17 5 -1 6 -16 1 -18 7 -14 51 3 28 1 50 -3 50 -5 0 -8 -48 -8 -107z"/>
<path d="M2836 1198 c-22 -32 -20 -64 6 -82 46 -32 108 -7 108 43 0 57 -82 85
-114 39z m88 -4 c21 -20 20 -43 -1 -66 -20 -22 -51 -23 -75 -1 -22 20 -23 41
-1 65 20 22 56 23 77 2z"/>
<path d="M3372 1128 l-2 -88 78 2 77 2 -72 3 -72 4 -4 82 -3 82 -2 -87z"/>
<path d="M3624 1197 c-3 -8 -4 -47 -2 -88 l3 -74 35 -3 c19 -2 53 1 75 7 38 9
37 9 -27 10 l-68 1 0 74 0 75 53 4 52 3 -58 2 c-40 1 -59 -2 -63 -11z"/>
<path d="M1830 1129 c-80 -58 -101 -63 -178 -39 -85 27 -121 20 -177 -31 -76
-70 -114 -200 -78 -268 45 -87 108 -98 259 -46 60 21 110 41 112 46 2 4 9 6
17 3 7 -3 16 0 20 5 3 6 11 9 16 6 5 -4 9 -2 9 4 0 6 6 8 14 5 21 -8 71 41 84
83 28 97 26 217 -4 248 -23 22 -46 18 -94 -16z m-132 -181 c17 -14 19 -14 44
8 13 13 23 13 60 4 48 -13 108 -54 108 -74 0 -28 -36 -59 -68 -58 -19 0 -33
-5 -36 -15 -4 -8 -13 -13 -21 -9 -8 3 -17 1 -20 -4 -4 -6 -18 -7 -33 -4 -16 3
-22 2 -15 -3 8 -6 1 -12 -22 -19 -19 -6 -32 -7 -29 -2 3 4 -2 8 -10 8 -10 0
-13 -6 -10 -15 6 -14 2 -16 -48 -19 -9 -1 -20 -4 -24 -8 -12 -13 -76 -10 -68
3 4 8 -1 9 -16 4 -16 -5 -28 -1 -43 16 -12 13 -21 27 -19 31 1 5 -3 8 -8 8
-14 0 -12 33 3 49 10 11 10 13 0 7 -7 -4 -13 -2 -13 3 0 6 5 11 11 11 8 0 8 4
-1 15 -9 11 -9 17 2 28 24 25 80 49 99 44 11 -3 22 0 25 5 9 14 132 2 152 -14z"/>
<path d="M1640 940 c6 -11 15 -20 20 -20 6 0 2 9 -7 20 -10 11 -19 20 -21 20
-1 0 2 -9 8 -20z"/>
<path d="M1705 930 c-4 -6 2 -13 12 -17 10 -3 21 -8 25 -10 4 -2 9 1 12 5 3 5
-6 14 -19 20 -15 7 -26 8 -30 2z"/>
<path d="M1780 885 c-11 -13 -10 -14 4 -9 9 3 16 10 16 15 0 13 -6 11 -20 -6z"/>
<path d="M1814 859 c1 -7 12 -13 24 -14 11 -1 19 2 16 7 -4 5 -12 7 -19 4 -8
-3 -16 -1 -19 5 -2 5 -3 4 -2 -2z"/>
<path d="M1680 789 c0 -5 5 -7 10 -4 6 3 10 8 10 11 0 2 -4 4 -10 4 -5 0 -10
-5 -10 -11z"/>
<path d="M1595 760 c3 -5 10 -10 16 -10 5 0 9 5 9 10 0 6 -7 10 -16 10 -8 0
-12 -4 -9 -10z"/>
<path d="M3143 1093 c37 -2 96 -2 130 0 34 2 4 3 -68 3 -71 0 -99 -1 -62 -3z"/>
<path d="M2981 1078 c-1 -10 -12 -18 -28 -21 -16 -2 -1 -4 32 -4 33 0 48 2 33
4 -15 2 -29 12 -31 21 -4 16 -5 16 -6 0z"/>
<path d="M2853 1020 l2 -55 38 -3 c20 -2 37 1 37 6 0 5 -13 7 -29 4 -28 -4
-30 -1 -36 34 -11 68 -13 70 -12 14z"/>
<path d="M3114 1038 c3 -13 6 -35 6 -50 l0 -28 91 0 c79 0 90 2 85 16 -3 9 -7
32 -7 52 -1 24 -3 29 -6 15 -4 -21 -10 -23 -79 -23 -67 0 -74 2 -74 20 0 11
-5 20 -11 20 -7 0 -9 -9 -5 -22z m166 -48 c0 -18 -7 -20 -75 -20 -68 0 -75 2
-75 20 0 18 7 20 75 20 68 0 75 -2 75 -20z"/>
<path d="M2949 1014 c-25 -31 24 -69 69 -53 24 9 29 38 10 57 -17 17 -63 15
-79 -4z m72 -10 c11 -14 11 -18 -4 -29 -19 -13 -53 -10 -63 7 -20 33 41 53 67
22z"/>
<path d="M851 968 c-2 -36 21 -117 36 -129 13 -11 18 -10 29 6 8 10 14 26 13
34 0 11 -4 8 -11 -7 -17 -35 -32 -21 -50 49 -9 35 -17 56 -17 47z"/>
<path d="M1290 511 c0 -36 -13 -33 -23 4 -3 12 -5 8 -4 -10 1 -19 8 -31 19
-33 21 -4 33 31 19 55 -9 15 -10 12 -11 -16z"/>
</g>
</svg>
