<?xml version="1.0" encoding="UTF-8"?>
<svg version="1.1" xmlns="http://www.w3.org/2000/svg" width="50" height="50">
<path d="M0 0 C0.73476562 0.01546875 1.46953125 0.0309375 2.2265625 0.046875 C4.375 0.25 4.375 0.25 6.5 0.79296875 C9.01417459 1.40579881 10.8566222 0.78965239 13.375 0.25 C18.87958716 -0.08027523 18.87958716 -0.08027523 22.375 2.25 C22.375 2.91 22.375 3.57 22.375 4.25 C23.32375 4.311875 24.2725 4.37375 25.25 4.4375 C26.28125 4.705625 27.3125 4.97375 28.375 5.25 C29.421875 7.3828125 29.421875 7.3828125 30.375 10.25 C31.16063164 12.48130076 31.95260346 14.71037654 32.75 16.9375 C33.14960937 18.07574219 33.54921875 19.21398437 33.9609375 20.38671875 C35.22899962 23.68027599 35.22899962 23.68027599 39.375 25.25 C39.375 30.2 39.375 35.15 39.375 40.25 C37.395 40.91 35.415 41.57 33.375 42.25 C34.035 44.89 34.695 47.53 35.375 50.25 C20.195 50.25 5.015 50.25 -10.625 50.25 C-10.625 34.74 -10.625 19.23 -10.625 3.25 C-3.85272277 -0.13613861 -3.85272277 -0.13613861 0 0 Z M13.375 3.25 C13.375 3.91 13.375 4.57 13.375 5.25 C14.365 4.92 15.355 4.59 16.375 4.25 C15.385 3.92 14.395 3.59 13.375 3.25 Z M23.375 7.25 C24.695 8.24 26.015 9.23 27.375 10.25 C28.035 9.92 28.695 9.59 29.375 9.25 C28.715 8.59 28.055 7.93 27.375 7.25 C26.055 7.25 24.735 7.25 23.375 7.25 Z " fill="#716981" transform="translate(10.625,-0.25)"/>
<path d="M0 0 C0.73476562 0.01546875 1.46953125 0.0309375 2.2265625 0.046875 C4.375 0.25 4.375 0.25 6.5 0.79296875 C9.01417459 1.40579881 10.8566222 0.78965239 13.375 0.25 C18.87958716 -0.08027523 18.87958716 -0.08027523 22.375 2.25 C22.375 2.91 22.375 3.57 22.375 4.25 C23.32375 4.311875 24.2725 4.37375 25.25 4.4375 C26.28125 4.705625 27.3125 4.97375 28.375 5.25 C29.41796875 7.3828125 29.41796875 7.3828125 30.375 10.25 C31.18432605 12.48032097 31.99698264 14.70943543 32.8125 16.9375 C33.42931641 18.64486328 33.42931641 18.64486328 34.05859375 20.38671875 C35.18899918 23.50463893 35.18899918 23.50463893 38.375 25.25 C37.68792969 25.31058594 37.00085937 25.37117188 36.29296875 25.43359375 C34.94138672 25.55927734 34.94138672 25.55927734 33.5625 25.6875 C32.22251953 25.80931641 32.22251953 25.80931641 30.85546875 25.93359375 C28.24756441 26.18489767 28.24756441 26.18489767 25.375 27.25 C25.06046875 26.43015625 24.7459375 25.6103125 24.421875 24.765625 C23.99390625 23.68796875 23.5659375 22.6103125 23.125 21.5 C22.70734375 20.43265625 22.2896875 19.3653125 21.859375 18.265625 C20.37607369 15.25218129 18.87768319 13.45321683 16.375 11.25 C16.045 11.91 15.715 12.57 15.375 13.25 C13.89 12.074375 13.89 12.074375 12.375 10.875 C8.49754912 8.07594037 5.04176397 7.15060357 0.375 6.25 C0.705 7.24 1.035 8.23 1.375 9.25 C0.385 10.24 -0.605 11.23 -1.625 12.25 C-0.965 12.25 -0.305 12.25 0.375 12.25 C1.2721875 13.3946875 1.2721875 13.3946875 2.1875 14.5625 C4.20013079 17.34946784 4.20013079 17.34946784 7 18.8125 C9.64708516 20.41468312 10.48425371 21.31053724 11.375 24.25 C11 26.5 11 26.5 10.375 28.25 C6.12045047 27.77727227 4.18295427 25.28562624 1.375 22.25 C1.045 21.92 0.715 21.59 0.375 21.25 C-1.85156164 25.99354436 -3.08648032 29.97250715 -3.625 35.25 C-5.605 35.745 -5.605 35.745 -7.625 36.25 C-7.955 34.6 -8.285 32.95 -8.625 31.25 C-9.285 31.25 -9.945 31.25 -10.625 31.25 C-10.625 22.01 -10.625 12.77 -10.625 3.25 C-3.85272277 -0.13613861 -3.85272277 -0.13613861 0 0 Z M13.375 3.25 C13.375 3.91 13.375 4.57 13.375 5.25 C14.365 4.92 15.355 4.59 16.375 4.25 C15.385 3.92 14.395 3.59 13.375 3.25 Z M23.375 7.25 C24.695 8.24 26.015 9.23 27.375 10.25 C28.035 9.92 28.695 9.59 29.375 9.25 C28.715 8.59 28.055 7.93 27.375 7.25 C26.055 7.25 24.735 7.25 23.375 7.25 Z " fill="#262531" transform="translate(10.625,-0.25)"/>
<path d="M0 0 C1.7074998 1.28062485 3.37373596 2.61767557 5 4 C5 4.66 5 5.32 5 6 C7.97 6.495 7.97 6.495 11 7 C11.33 6.01 11.66 5.02 12 4 C15.465 3.505 15.465 3.505 19 3 C19.33 3.99 19.66 4.98 20 6 C18.02 6.99 18.02 6.99 16 8 C18.475 8.495 18.475 8.495 21 9 C22.14149428 12.17987692 22.3517733 14.22506029 20.94140625 17.33203125 C18.49839016 21.25989348 16.88937486 23.58825238 12.625 25.5625 C11.75875 25.706875 10.8925 25.85125 10 26 C10.33 26.66 10.66 27.32 11 28 C11.99 28.33 12.98 28.66 14 29 C14 29.33 14 29.66 14 30 C6.08 30 -1.84 30 -10 30 C-10 23.73 -10 17.46 -10 11 C-9.34 11 -8.68 11 -8 11 C-7.34 12.32 -6.68 13.64 -6 15 C-5.34 14.67 -4.68 14.34 -4 14 C-3.47281656 12.05601108 -2.95374356 10.1087514 -2.5078125 8.14453125 C-1.84982648 5.36580569 -0.94273438 2.69352679 0 0 Z " fill="#F6EAE4" transform="translate(10,20)"/>
<path d="M0 0 C0.33 0.66 0.66 1.32 1 2 C1.66 2 2.32 2 3 2 C3.8971875 3.1446875 3.8971875 3.1446875 4.8125 4.3125 C6.82513079 7.09946784 6.82513079 7.09946784 9.625 8.5625 C12.27208516 10.16468312 13.10925371 11.06053724 14 14 C13.625 16.25 13.625 16.25 13 18 C8.74545047 17.52727227 6.80795427 15.03562624 4 12 C3.67 11.67 3.34 11.34 3 11 C0.77343836 15.74354436 -0.46148032 19.72250715 -1 25 C-2.32 25.33 -3.64 25.66 -5 26 C-5.33 24.35 -5.66 22.7 -6 21 C-6.66 21 -7.32 21 -8 21 C-8 14.73 -8 8.46 -8 2 C-4 0 -4 0 0 0 Z " fill="#645C73" transform="translate(8,10)"/>
<path d="M0 0 C5.78826101 0.30464532 8.94031273 1.15517085 13.359375 4.94140625 C15.23476086 6.36144829 15.23476086 6.36144829 19 6 C21.74522883 10.42778844 23.48474397 13.71862571 24 19 C22.68 19 21.36 19 20 19 C20 19.66 20 20.32 20 21 C17.69 21.66 15.38 22.32 13 23 C13.66 22.01 14.32 21.02 15 20 C16.32 20 17.64 20 19 20 C18.67 19.34 18.34 18.68 18 18 C16.741875 18.103125 15.48375 18.20625 14.1875 18.3125 C11.9609375 18.3203125 11.9609375 18.3203125 10 18 C8.3125 15.6875 8.3125 15.6875 7 13 C5.34051852 11.98812105 3.67419438 10.9873454 2 10 C0.6875 7.8125 0.6875 7.8125 0 6 C-0.66 6 -1.32 6 -2 6 C-1.34 4.02 -0.68 2.04 0 0 Z " fill="#696174" transform="translate(11,6)"/>
<path d="M0 0 C0 0.66 0 1.32 0 2 C1.423125 2.4021875 1.423125 2.4021875 2.875 2.8125 C6 4 6 4 8 7 C8.99 7.33 9.98 7.66 11 8 C11 7.34 11 6.68 11 6 C11.99 6 12.98 6 14 6 C14.495 7.98 14.495 7.98 15 10 C13.68 10.99 12.36 11.98 11 13 C10.01 12.01 9.02 11.02 8 10 C7.67 10.66 7.34 11.32 7 12 C5.515 10.824375 5.515 10.824375 4 9.625 C0.12254912 6.82594037 -3.33323603 5.90060357 -8 5 C-7.67 5.99 -7.34 6.98 -7 8 C-7.61875 8.28875 -8.2375 8.5775 -8.875 8.875 C-11.13325765 9.93720042 -11.13325765 9.93720042 -13 12 C-13 11.01 -13 10.02 -13 9 C-14.98 9.66 -16.96 10.32 -19 11 C-19 8.03 -19 5.06 -19 2 C-12.80924644 -1.8096945 -6.87251157 -1.92803492 0 0 Z " fill="#524C65" transform="translate(19,1)"/>
<path d="M0 0 C0 4.95 0 9.9 0 15 C-10.16725352 15.48415493 -10.16725352 15.48415493 -13.6875 13.4375 C-15.52035388 10.03362851 -15.54407614 7.80853299 -15 4 C-11.87050051 -1.81192763 -5.76447771 -0.27449894 0 0 Z " fill="#EBEBEB" transform="translate(50,25)"/>
<path d="M0 0 C0 0.66 0 1.32 0 2 C-1.98 2.99 -1.98 2.99 -4 4 C-2.35 4.33 -0.7 4.66 1 5 C1.92817192 8.62830843 2.26901295 10.41073355 0.6875 13.875 C0.130625 14.57625 -0.42625 15.2775 -1 16 C-1.66 16 -2.32 16 -3 16 C-3.33 15.34 -3.66 14.68 -4 14 C-4.66 14 -5.32 14 -6 14 C-6 14.66 -6 15.32 -6 16 C-7.65 16.33 -9.3 16.66 -11 17 C-11.33 15.68 -11.66 14.36 -12 13 C-10.02 12.01 -8.04 11.02 -6 10 C-7.65 8.02 -9.3 6.04 -11 4 C-10.34 3.67 -9.68 3.34 -9 3 C-8.67 2.01 -8.34 1.02 -8 0 C-5.04215769 -1.22393475 -3.00272755 -0.96516243 0 0 Z " fill="#917483" transform="translate(30,24)"/>
<path d="M0 0 C0.33 1.32 0.66 2.64 1 4 C5.10223585 5.01540112 5.10223585 5.01540112 9 4 C9 4.99 9 5.98 9 7 C11.52363988 6.37466625 11.52363988 6.37466625 14 5 C14.89386164 2.45224694 14.89386164 2.45224694 15 0 C15.99 0.33 16.98 0.66 18 1 C17.34 1 16.68 1 16 1 C16.66 3.64 17.32 6.28 18 9 C14.4375692 9.05827558 10.87526181 9.09368885 7.3125 9.125 C5.80139648 9.15013672 5.80139648 9.15013672 4.25976562 9.17578125 C3.28330078 9.18222656 2.30683594 9.18867187 1.30078125 9.1953125 C0.40528564 9.20578613 -0.49020996 9.21625977 -1.4128418 9.22705078 C-4.26168257 8.97703456 -6.40894543 8.18016512 -9 7 C-8.67 6.01 -8.34 5.02 -8 4 C-6.01751285 3.28293018 -4.01584651 2.61709587 -2 2 C-1.34 1.34 -0.68 0.68 0 0 Z " fill="#373846" transform="translate(28,41)"/>
<path d="M0 0 C1.36125 0.37125 1.36125 0.37125 2.75 0.75 C3.08 3.06 3.41 5.37 3.75 7.75 C2.76 8.08 1.77 8.41 0.75 8.75 C1.08 9.41 1.41 10.07 1.75 10.75 C1.42 11.41 1.09 12.07 0.75 12.75 C-2.125 12.875 -2.125 12.875 -5.25 12.75 C-7.25 10.75 -7.25 10.75 -7.625 7.375 C-7.25 3.75 -7.25 3.75 -5.625 1.25 C-3.25 -0.25 -3.25 -0.25 0 0 Z " fill="#DEDEDE" transform="translate(42.25,25.25)"/>
<path d="M0 0 C1.65 0 3.3 0 5 0 C5.81498562 1.6029053 6.62689927 3.20737278 7.4375 4.8125 C8.11619141 6.15248047 8.11619141 6.15248047 8.80859375 7.51953125 C10 10 10 10 11 13 C11.99 13.66 12.98 14.32 14 15 C10.37 15.33 6.74 15.66 3 16 C2 12 2 12 3 9 C2.0337499 6.98347806 1.03291676 4.98320018 0 3 C0 2.01 0 1.02 0 0 Z " fill="#5B5869" transform="translate(35,10)"/>
<path d="M0 0 C0.66 0.33 1.32 0.66 2 1 C2.59765625 3.21484375 2.59765625 3.21484375 3.0625 5.9375 C3.66805467 9.58772209 3.66805467 9.58772209 5 13 C1.04 13 -2.92 13 -7 13 C-7 9.04 -7 5.08 -7 1 C-5.02 1.99 -5.02 1.99 -3 3 C-3 3.99 -3 4.98 -3 6 C-2.34 5.67 -1.68 5.34 -1 5 C-0.34444881 2.47266765 -0.34444881 2.47266765 0 0 Z " fill="#68637A" transform="translate(7,37)"/>
<path d="M0 0 C0 0.99 0 1.98 0 3 C0.66 3.33 1.32 3.66 2 4 C0.741875 4.144375 -0.51625 4.28875 -1.8125 4.4375 C-4.04829697 4.86642701 -4.04829697 4.86642701 -6 6 C-7.61298139 8.87394404 -8.3639167 11.77982829 -9 15 C-9.66 15 -10.32 15 -11 15 C-11.33 14.01 -11.66 13.02 -12 12 C-12.99 11.34 -13.98 10.68 -15 10 C-15.1875 6.375 -15.1875 6.375 -15 3 C-14.34 3 -13.68 3 -13 3 C-12.34 4.32 -11.68 5.64 -11 7 C-10.34 6.67 -9.68 6.34 -9 6 C-8.34444881 3.47266765 -8.34444881 3.47266765 -8 1 C-2.25 -1.125 -2.25 -1.125 0 0 Z " fill="#AB9CAB" transform="translate(15,28)"/>
<path d="M0 0 C4.57446809 4.14893617 4.57446809 4.14893617 6 7 C2.24928186 8.82177738 -0.00637332 9.36624071 -4 8 C-5.8125 6.5625 -5.8125 6.5625 -7 5 C-7 4.34 -7 3.68 -7 3 C-7.66 3 -8.32 3 -9 3 C-8.67 2.01 -8.34 1.02 -8 0 C-5.061821 -1.21579821 -2.91393977 -1.23621687 0 0 Z " fill="#DDCEBE" transform="translate(18,9)"/>
<path d="M0 0 C4 2 4 2 5 3 C6.68183948 3.23287008 8.3712416 3.41264166 10.0625 3.5625 C11.44115234 3.68818359 11.44115234 3.68818359 12.84765625 3.81640625 C13.91306641 3.90728516 13.91306641 3.90728516 15 4 C15 4.33 15 4.66 15 5 C13.02 5 11.04 5 9 5 C9.061875 5.78375 9.12375 6.5675 9.1875 7.375 C9.125625 8.24125 9.06375 9.1075 9 10 C6 12 6 12 3 12 C2.67 11.34 2.34 10.68 2 10 C1.01 10.33 0.02 10.66 -1 11 C-0.67 7.37 -0.34 3.74 0 0 Z " fill="#767886" transform="translate(34,36)"/>
<path d="M0 0 C1.7325 0.7115625 1.7325 0.7115625 3.5 1.4375 C7.68570332 3.02208768 11.55238986 3.60289195 16 4 C16 4.33 16 4.66 16 5 C14.35 5.33 12.7 5.66 11 6 C11.33 6.66 11.66 7.32 12 8 C12.99 8.33 13.98 8.66 15 9 C15 9.33 15 9.66 15 10 C13.06372231 10.10807131 11.12572244 10.1856225 9.1875 10.25 C7.56908203 10.31960937 7.56908203 10.31960937 5.91796875 10.390625 C3 10 3 10 1.125 8.1875 C-0.33532369 5.34798172 -0.21457149 3.14704859 0 0 Z " fill="#E1C7CC" transform="translate(9,40)"/>
<path d="M0 0 C1.65 0.33 3.3 0.66 5 1 C4.01 1.33 3.02 1.66 2 2 C2.30035156 2.556875 2.60070313 3.11375 2.91015625 3.6875 C5.74939101 9.38521857 6.3585901 12.7731287 5 19 C4.34 19 3.68 19 3 19 C2.10129627 17.13624529 1.23189762 15.25834183 0.375 13.375 C-0.11226562 12.33085937 -0.59953125 11.28671875 -1.1015625 10.2109375 C-2.17894768 6.36045655 -1.55634859 4.61030523 0 1 C0 0.67 0 0.34 0 0 Z " fill="#232333" transform="translate(33,8)"/>
<path d="M0 0 C1.65 0.33 3.3 0.66 5 1 C6.23076923 6.41538462 6.23076923 6.41538462 5.0625 9.375 C4.711875 9.91125 4.36125 10.4475 4 11 C3.34 11 2.68 11 2 11 C-1.07692308 4.6 -1.07692308 4.6 -0.6875 1.5625 C-0.460625 1.046875 -0.23375 0.53125 0 0 Z " fill="#F2E8E1" transform="translate(26,28)"/>
<path d="M0 0 C0.33 1.32 0.66 2.64 1 4 C0.01 4.495 0.01 4.495 -1 5 C-1 5.66 -1 6.32 -1 7 C-0.34 7.33 0.32 7.66 1 8 C-1.31 9.32 -3.62 10.64 -6 12 C-6 9.03 -6 6.06 -6 3 C-4.02 2.01 -2.04 1.02 0 0 Z " fill="#3C3950" transform="translate(6,0)"/>
<path d="M0 0 C3.3 0.33 6.6 0.66 10 1 C9.01 1.66 8.02 2.32 7 3 C10.465 4.485 10.465 4.485 14 6 C10.79984144 7.06671952 9.11455706 6.94845472 5.8125 6.5625 C4.91144531 6.46066406 4.01039062 6.35882812 3.08203125 6.25390625 C2.39496094 6.17011719 1.70789062 6.08632812 1 6 C0.67 4.02 0.34 2.04 0 0 Z " fill="#2C2B40" transform="translate(9,0)"/>
<path d="M0 0 C2.64 0 5.28 0 8 0 C7 2 7 2 5 3 C5.33 3.66 5.66 4.32 6 5 C5.67 5.66 5.34 6.32 5 7 C2.125 7.1875 2.125 7.1875 -1 7 C-1.66 6.01 -2.32 5.02 -3 4 C-2.01 3.67 -1.02 3.34 0 3 C0 2.01 0 1.02 0 0 Z " fill="#D1D1D1" transform="translate(38,31)"/>
<path d="M0 0 C1.32 0.66 2.64 1.32 4 2 C4 2.99 4 3.98 4 5 C3.34 5 2.68 5 2 5 C2 5.66 2 6.32 2 7 C2.99 7 3.98 7 5 7 C4.67 8.32 4.34 9.64 4 11 C2.33333333 11 0.66666667 11 -1 11 C-0.67 7.37 -0.34 3.74 0 0 Z " fill="#7E8193" transform="translate(34,36)"/>
<path d="M0 0 C0 0.99 0 1.98 0 3 C0.66 3.33 1.32 3.66 2 4 C-2.95 5.485 -2.95 5.485 -8 7 C-8 5.02 -8 3.04 -8 1 C-2.25 -1.125 -2.25 -1.125 0 0 Z " fill="#F3E6DF" transform="translate(15,28)"/>
<path d="M0 0 C2.5 1.8125 2.5 1.8125 5 4 C5 4.99 5 5.98 5 7 C0.375 9.125 0.375 9.125 -3 8 C-2.01 5.36 -1.02 2.72 0 0 Z " fill="#D9C8C5" transform="translate(10,20)"/>
<path d="M0 0 C-0.66 0 -1.32 0 -2 0 C-2 0.66 -2 1.32 -2 2 C-0.68 2.33 0.64 2.66 2 3 C1.67 4.32 1.34 5.64 1 7 C-1.475 6.01 -1.475 6.01 -4 5 C-4 3.68 -4 2.36 -4 1 C-5.98 1.99 -5.98 1.99 -8 3 C-7.67 2.01 -7.34 1.02 -7 0 C-4.05610218 -1.17755913 -3.10046087 -1.03348696 0 0 Z " fill="#CFB36D" transform="translate(17,9)"/>
<path d="M0 0 C2.3125 -0.3125 2.3125 -0.3125 5 0 C6.875 2.375 6.875 2.375 8 5 C7 7 7 7 5 8 C4.67 7.34 4.34 6.68 4 6 C3.01 5.67 2.02 5.34 1 5 C0.67 3.35 0.34 1.7 0 0 Z " fill="#4A4658" transform="translate(35,10)"/>
<path d="M0 0 C3.79814333 0.39980456 5.45184507 1.22832271 8 4 C-1.41002278 4.3690205 -1.41002278 4.3690205 -6 2 C-6 1.67 -6 1.34 -6 1 C-4.7934375 1.0309375 -4.7934375 1.0309375 -3.5625 1.0625 C-1.06645115 1.29633621 -1.06645115 1.29633621 0 0 Z " fill="#587ABC" transform="translate(25,46)"/>
<path d="M0 0 C2.31 0.33 4.62 0.66 7 1 C7 1.99 7 2.98 7 4 C3.37 4 -0.26 4 -4 4 C-4.33 3.34 -4.66 2.68 -5 2 C-3.35 2 -1.7 2 0 2 C0 1.34 0 0.68 0 0 Z " fill="#F4F4F4" transform="translate(43,36)"/>
<path d="M0 0 C0.99 0.33 1.98 0.66 3 1 C2.34 1 1.68 1 1 1 C1.66 3.64 2.32 6.28 3 9 C-0.375 9.125 -0.375 9.125 -4 9 C-4.66 8.34 -5.32 7.68 -6 7 C-4.7934375 6.6596875 -4.7934375 6.6596875 -3.5625 6.3125 C-2.716875 5.879375 -1.87125 5.44625 -1 5 C-0.10613836 2.45224694 -0.10613836 2.45224694 0 0 Z " fill="#4C4C5A" transform="translate(43,41)"/>
<path d="M0 0 C1.98 0.99 1.98 0.99 4 2 C3.40138258 4.35171131 2.73075648 6.6859378 2 9 C1.01 9.495 1.01 9.495 0 10 C0 6.7 0 3.4 0 0 Z " fill="#6D697A" transform="translate(0,38)"/>
<path d="M0 0 C1.65 0.33 3.3 0.66 5 1 C4.01 1.33 3.02 1.66 2 2 C2 4.64 2 7.28 2 10 C0.68 9.01 -0.64 8.02 -2 7 C-1.67 6.030625 -1.34 5.06125 -1 4.0625 C0.05173363 1.37850426 0.05173363 1.37850426 0 0 Z " fill="#2E2D41" transform="translate(33,8)"/>
<path d="M0 0 C3.71888239 0.50712033 6.73454239 1.11608215 10 3 C7 4 7 4 4 3 C3.67 3.66 3.34 4.32 3 5 C1.68 4.01 0.36 3.02 -1 2 C-0.67 1.34 -0.34 0.68 0 0 Z " fill="#1D1C1F" transform="translate(20,0)"/>
<path d="M0 0 C0 1.98 0 3.96 0 6 C-1.32 6.33 -2.64 6.66 -4 7 C-4.6875 5.1875 -4.6875 5.1875 -5 3 C-3.38441968 0.84589291 -2.74502455 0 0 0 Z " fill="#7B6E85" transform="translate(7,29)"/>
<path d="M0 0 C0 0.66 0 1.32 0 2 C-2.31 2.66 -4.62 3.32 -7 4 C-7.33 2.68 -7.66 1.36 -8 0 C-4.94736336 -0.98120464 -3.05263664 -0.98120464 0 0 Z " fill="#E8D9D5" transform="translate(30,24)"/>
<path d="M0 0 C0.96516243 3.00272755 1.22393475 5.04215769 0 8 C-0.99 8.33 -1.98 8.66 -3 9 C-3.36923077 3.46153846 -3.36923077 3.46153846 -1.5 1.125 C-1.005 0.75375 -0.51 0.3825 0 0 Z " fill="#F8F8F8" transform="translate(38,26)"/>
<path d="M0 0 C3.3 0.33 6.6 0.66 10 1 C8.515 2.485 8.515 2.485 7 4 C3.8125 3.6875 3.8125 3.6875 1 3 C0.67 2.01 0.34 1.02 0 0 Z " fill="#3B3849" transform="translate(9,0)"/>
<path d="M0 0 C1.32 0.66 2.64 1.32 4 2 C3.25 3.9375 3.25 3.9375 2 6 C-0.125 6.75 -0.125 6.75 -2 7 C-1.125 2.25 -1.125 2.25 0 0 Z " fill="#616284" transform="translate(7,0)"/>
<path d="M0 0 C2.64 0.99 5.28 1.98 8 3 C7.67 3.66 7.34 4.32 7 5 C4.625 5.125 4.625 5.125 2 5 C1.34 4.34 0.68 3.68 0 3 C0 2.01 0 1.02 0 0 Z " fill="#F3D6D7" transform="translate(10,45)"/>
<path d="M0 0 C1.98 0 3.96 0 6 0 C6 0.99 6 1.98 6 3 C4.35 3.33 2.7 3.66 1 4 C0.67 2.68 0.34 1.36 0 0 Z " fill="#D36A82" transform="translate(18,37)"/>
<path d="M0 0 C1.4606285 2.64738916 2 3.89448334 2 7 C0.35 7.33 -1.3 7.66 -3 8 C-2.5359375 7.13375 -2.5359375 7.13375 -2.0625 6.25 C-1.07416636 4.15705816 -0.4831387 2.25464725 0 0 Z " fill="#2B2A36" transform="translate(3,42)"/>
<path d="M0 0 C0.66 0 1.32 0 2 0 C2 2.64 2 5.28 2 8 C1.01 8 0.02 8 -1 8 C-0.67 5.36 -0.34 2.72 0 0 Z " fill="#D7D7D7" transform="translate(48,25)"/>
<path d="M0 0 C-2.96687001 1.64826111 -5.65626525 2.44271087 -9 3 C-8.67 2.01 -8.34 1.02 -8 0 C-5.13822943 -1.43088528 -3.06624227 -0.59991697 0 0 Z " fill="#594649" transform="translate(17,31)"/>
<path d="M0 0 C0.99 0 1.98 0 3 0 C3.33 1.32 3.66 2.64 4 4 C3.01 4.66 2.02 5.32 1 6 C0.67 4.02 0.34 2.04 0 0 Z " fill="#505B7E" transform="translate(30,7)"/>
</svg>
