<?xml version="1.0" encoding="UTF-8"?>
<svg version="1.1" xmlns="http://www.w3.org/2000/svg" width="100" height="100">
<path d="M0 0 C9.70186168 -0.65040413 17.82899626 1.19357263 27 4 C27.33 2.68 27.66 1.36 28 0 C29.98 0 31.96 0 34 0 C33.01 1.98 32.02 3.96 31 6 C33.22468387 6.23193174 33.22468387 6.23193174 35 4.0625 C35.66 3.381875 36.32 2.70125 37 2 C40.10953379 0.4452331 42.56266761 0.71355563 46 1 C51.56701031 3.88659794 51.56701031 3.88659794 52.875 7.25 C52.91625 7.8275 52.9575 8.405 53 9 C54.19625 8.896875 55.3925 8.79375 56.625 8.6875 C59.94061009 8.6875 61.81012922 9.14185851 64.4375 11.1875 C66.99909564 13.99900741 67.78698668 15.27226686 68 19 C67.34 19 66.68 19 66 19 C65.505 17.02 65.505 17.02 65 15 C63.741875 14.62875 62.48375 14.2575 61.1875 13.875 C60.47980469 13.66617187 59.77210937 13.45734375 59.04296875 13.2421875 C56.68854587 12.73906252 56.68854587 12.73906252 54 15 C55.19625 15.391875 56.3925 15.78375 57.625 16.1875 C64.23020982 18.68487615 68.62919562 22.82019197 72 29 C74.42324917 35.07483499 76.27500057 40.39998638 76 47 C78.97851562 47.29296875 78.97851562 47.29296875 81.95703125 47.5859375 C84 48 84 48 87 50 C87.34057617 52.98095703 87.34057617 52.98095703 87.29296875 56.7578125 C87.28872391 57.42086395 87.28447906 58.08391541 87.28010559 58.76705933 C87.26329971 60.88678441 87.22564701 63.00556188 87.1875 65.125 C87.17245549 66.56118419 87.15876668 67.99738328 87.14648438 69.43359375 C87.1133909 72.95603764 87.0615968 76.47792636 87 80 C85.75336669 80.50833591 84.50250613 81.00631145 83.25 81.5 C82.55390625 81.7784375 81.8578125 82.056875 81.140625 82.34375 C79 83 79 83 75 83 C74.91796675 84.70750683 74.86034658 86.41619348 74.8125 88.125 C74.77769531 89.07632813 74.74289063 90.02765625 74.70703125 91.0078125 C74.88485615 94.66453121 74.88485615 94.66453121 78 100 C47.97 100 17.94 100 -13 100 C-13 69.31 -13 38.62 -13 7 C-4 2.5 -4 2.5 0 2 C0 1.34 0 0.68 0 0 Z M34 7 C34.33 7.99 34.66 8.98 35 10 C35.99 10.33 36.98 10.66 38 11 C38.598125 10.38125 39.19625 9.7625 39.8125 9.125 C42 7 42 7 45 5 C43.1128125 4.938125 43.1128125 4.938125 41.1875 4.875 C40.47980469 4.85179687 39.77210937 4.82859375 39.04296875 4.8046875 C36.68640281 4.86745538 36.68640281 4.86745538 34 7 Z " fill="#726F85" transform="translate(13,0)"/>
<path d="M0 0 C9.70186168 -0.65040413 17.82899626 1.19357263 27 4 C27.33 2.68 27.66 1.36 28 0 C29.98 0 31.96 0 34 0 C33.01 1.98 32.02 3.96 31 6 C33.22468387 6.23193174 33.22468387 6.23193174 35 4.0625 C35.66 3.381875 36.32 2.70125 37 2 C40.10953379 0.4452331 42.56266761 0.71355563 46 1 C51.56701031 3.88659794 51.56701031 3.88659794 52.875 7.25 C52.91625 7.8275 52.9575 8.405 53 9 C54.19625 8.896875 55.3925 8.79375 56.625 8.6875 C59.94061009 8.6875 61.81012922 9.14185851 64.4375 11.1875 C66.99909564 13.99900741 67.78698668 15.27226686 68 19 C67.34 19 66.68 19 66 19 C65.505 17.02 65.505 17.02 65 15 C63.741875 14.62875 62.48375 14.2575 61.1875 13.875 C60.47980469 13.66617187 59.77210937 13.45734375 59.04296875 13.2421875 C56.68854587 12.73906252 56.68854587 12.73906252 54 15 C55.19625 15.391875 56.3925 15.78375 57.625 16.1875 C64.23020982 18.68487615 68.62919562 22.82019197 72 29 C74.42324917 35.07483499 76.27500057 40.39998638 76 47 C78.97851562 47.29296875 78.97851562 47.29296875 81.95703125 47.5859375 C84 48 84 48 87 50 C86.505 50.99 86.505 50.99 86 52 C84.515 51.01 84.515 51.01 83 50 C74.55588323 49.06658863 67.3612641 49.63776942 60 54 C56.87575839 48.19607289 54.46110724 42.59964679 52.671875 36.2578125 C50.9755776 30.55746427 48.78460763 27.46884053 44 24 C43.56171875 23.54109375 43.1234375 23.0821875 42.671875 22.609375 C40.53973033 20.55693667 38.23460632 19.04416582 35.75 17.4375 C34.83734375 16.83808594 33.9246875 16.23867188 32.984375 15.62109375 C26.73425408 12.22606733 21.45115817 11.74474765 14.5625 12.375 C13.46518555 12.46007812 13.46518555 12.46007812 12.34570312 12.546875 C10.56288714 12.6867037 8.78127618 12.84175938 7 13 C7 13.66 7 14.32 7 15 C6.071875 14.938125 5.14375 14.87625 4.1875 14.8125 C1.01604897 14.69105736 1.01604897 14.69105736 -0.875 16.5 C-1.24625 16.995 -1.6175 17.49 -2 18 C-1.67 18.66 -1.34 19.32 -1 20 C-0.731875 19.360625 -0.46375 18.72125 -0.1875 18.0625 C1 16 1 16 4 15 C4.77988281 15.32742188 5.55976563 15.65484375 6.36328125 15.9921875 C9.492563 17.18826852 10.95711321 16.82165653 14.1875 16.125 C19.32017578 15.49736302 21.63290703 16.58234924 25.6875 19.75 C28.19921875 21.921875 28.19921875 21.921875 30 24 C30 24.99 30 25.98 30 27 C31.32 27.66 32.64 28.32 34 29 C34 30.32 34 31.64 34 33 C27.07 35.475 27.07 35.475 20 38 C22.475 37.505 22.475 37.505 25 37 C25.495 39.475 25.495 39.475 26 42 C26.66 42 27.32 42 28 42 C28.86355778 43.95421035 29.71559934 45.91351347 30.5625 47.875 C31.03816406 48.96554688 31.51382813 50.05609375 32.00390625 51.1796875 C32.49697266 52.57574219 32.49697266 52.57574219 33 54 C32.505 54.99 32.505 54.99 32 56 C30.35 56 28.7 56 27 56 C26.505 56.99 26.505 56.99 26 58 C25.0925 57.154375 24.185 56.30875 23.25 55.4375 C20.91452196 53.37584963 20.91452196 53.37584963 17.9375 53.0625 C17.298125 53.371875 16.65875 53.68125 16 54 C11.35714286 56.08928571 11.35714286 56.08928571 7 55 C9.97 53.68 12.94 52.36 16 51 C14.4005386 47.80107719 13.17187081 45.84646265 10.875 43.25 C10.33617188 42.63640625 9.79734375 42.0228125 9.2421875 41.390625 C8.62730469 40.70226563 8.62730469 40.70226563 8 40 C7.90203125 40.65226562 7.8040625 41.30453125 7.703125 41.9765625 C6.42709735 49.43472409 6.42709735 49.43472409 3.875 52.8125 C0.47804808 58.58731827 1.21763381 65.49820432 2.6484375 71.90234375 C3.17164473 73.70766769 3.71446696 75.50742962 4.27734375 77.30078125 C5.04731363 80.17672279 5.31176042 82.84472273 5.5 85.8125 C5.90239986 91.56928165 7.82238267 95.233574 11 100 C3.08 100 -4.84 100 -13 100 C-13 69.31 -13 38.62 -13 7 C-4 2.5 -4 2.5 0 2 C0 1.34 0 0.68 0 0 Z M34 7 C34.33 7.99 34.66 8.98 35 10 C35.99 10.33 36.98 10.66 38 11 C38.598125 10.38125 39.19625 9.7625 39.8125 9.125 C42 7 42 7 45 5 C43.1128125 4.938125 43.1128125 4.938125 41.1875 4.875 C40.47980469 4.85179687 39.77210937 4.82859375 39.04296875 4.8046875 C36.68640281 4.86745538 36.68640281 4.86745538 34 7 Z " fill="#6A627A" transform="translate(13,0)"/>
<path d="M0 0 C3.33333333 3.33333333 6.66666667 6.66666667 10 10 C9.67 10.99 9.34 11.98 9 13 C5.4375 14.6875 5.4375 14.6875 2 16 C3.0725 15.690625 4.145 15.38125 5.25 15.0625 C6.4875 14.711875 7.725 14.36125 9 14 C10.0209375 13.5359375 10.0209375 13.5359375 11.0625 13.0625 C13 13 13 13 15.875 15.5625 C16.90625 16.366875 17.9375 17.17125 19 18 C22.17414798 17.23215196 22.17414798 17.23215196 25 16 C24.6390625 15.08476563 24.278125 14.16953125 23.90625 13.2265625 C23.4421875 12.03804687 22.978125 10.84953125 22.5 9.625 C22.0359375 8.44164062 21.571875 7.25828125 21.09375 6.0390625 C20 3 20 3 20 1 C29.71428571 4.71428571 29.71428571 4.71428571 32 7 C34.32817964 7.36760731 36.6618385 7.70241581 39 8 C39.495 10.475 39.495 10.475 40 13 C38.948125 13.061875 37.89625 13.12375 36.8125 13.1875 C32.3708265 14.13408616 30.88406243 15.59156258 28 19 C29.216875 18.505 30.43375 18.01 31.6875 17.5 C34.92486738 16.27520559 37.50099357 15.67196815 41 16 C43.4075699 21.86845162 44.15225354 27.46171201 42.171875 33.54296875 C39.53459596 39.73270202 39.53459596 39.73270202 37 41 C35.68 38.03 34.36 35.06 33 32 C33.7734375 34.0728125 33.7734375 34.0728125 34.5625 36.1875 C36.63176053 42.54450711 36.63176053 42.54450711 35 46 C30.872337 50.5404293 27.8260394 51.58652895 21.7578125 51.95703125 C21.17773438 51.97121094 20.59765625 51.98539063 20 52 C19.67 52.99 19.34 53.98 19 55 C19.33 55.66 19.66 56.32 20 57 C21.485 56.505 21.485 56.505 23 56 C25.6875 57.3125 25.6875 57.3125 28 59 C28 59.66 28 60.32 28 61 C24.10473501 61.1746354 20.2104781 61.28096492 16.3125 61.375 C15.20970703 61.42527344 14.10691406 61.47554687 12.97070312 61.52734375 C4.98923651 61.6720229 4.98923651 61.6720229 2.14990234 59.74316406 C-2.55229742 54.27108272 -2.58353106 47.71263083 -3.40234375 40.859375 C-3.91263531 37.01159996 -3.91263531 37.01159996 -5.04296875 33.42578125 C-6.56937528 27.9618689 -6.61434311 22.62416493 -6 17 C-4.125 13.875 -4.125 13.875 -2 11 C-1.07661243 7.3673324 -0.50202225 3.71232246 0 0 Z " fill="#FAEFE8" transform="translate(20,39)"/>
<path d="M0 0 C9.70186168 -0.65040413 17.82899626 1.19357263 27 4 C27.33 2.68 27.66 1.36 28 0 C29.98 0 31.96 0 34 0 C33.01 1.98 32.02 3.96 31 6 C33.22468387 6.23193174 33.22468387 6.23193174 35 4.0625 C35.66 3.381875 36.32 2.70125 37 2 C40.10953379 0.4452331 42.56266761 0.71355563 46 1 C51.56701031 3.88659794 51.56701031 3.88659794 52.875 7.25 C52.91625 7.8275 52.9575 8.405 53 9 C54.19625 8.896875 55.3925 8.79375 56.625 8.6875 C59.94061009 8.6875 61.81012922 9.14185851 64.4375 11.1875 C66.99909564 13.99900741 67.78698668 15.27226686 68 19 C67.34 19 66.68 19 66 19 C65.505 17.02 65.505 17.02 65 15 C63.741875 14.62875 62.48375 14.2575 61.1875 13.875 C60.47980469 13.66617187 59.77210937 13.45734375 59.04296875 13.2421875 C56.68854587 12.73906252 56.68854587 12.73906252 54 15 C55.19625 15.391875 56.3925 15.78375 57.625 16.1875 C64.23020982 18.68487615 68.62919562 22.82019197 72 29 C74.42324917 35.07483499 76.27500057 40.39998638 76 47 C78.97851562 47.29296875 78.97851562 47.29296875 81.95703125 47.5859375 C84 48 84 48 87 50 C86.505 50.99 86.505 50.99 86 52 C84.515 51.01 84.515 51.01 83 50 C74.55588323 49.06658863 67.3612641 49.63776942 60 54 C56.87575839 48.19607289 54.46110724 42.59964679 52.671875 36.2578125 C50.9755776 30.55746427 48.78460763 27.46884053 44 24 C43.56171875 23.54109375 43.1234375 23.0821875 42.671875 22.609375 C40.53973033 20.55693667 38.23460632 19.04416582 35.75 17.4375 C34.83734375 16.83808594 33.9246875 16.23867188 32.984375 15.62109375 C26.73425408 12.22606733 21.45115817 11.74474765 14.5625 12.375 C13.46518555 12.46007812 13.46518555 12.46007812 12.34570312 12.546875 C10.56288714 12.6867037 8.78127618 12.84175938 7 13 C7 13.66 7 14.32 7 15 C6.195625 14.87625 5.39125 14.7525 4.5625 14.625 C-2.41680684 15.35966388 -7.67919179 20.74335344 -13 25 C-13 19.06 -13 13.12 -13 7 C-4 2.5 -4 2.5 0 2 C0 1.34 0 0.68 0 0 Z M34 7 C34.33 7.99 34.66 8.98 35 10 C35.99 10.33 36.98 10.66 38 11 C38.598125 10.38125 39.19625 9.7625 39.8125 9.125 C42 7 42 7 45 5 C43.1128125 4.938125 43.1128125 4.938125 41.1875 4.875 C40.47980469 4.85179687 39.77210937 4.82859375 39.04296875 4.8046875 C36.68640281 4.86745538 36.68640281 4.86745538 34 7 Z " fill="#242539" transform="translate(13,0)"/>
<path d="M0 0 C1.20785156 -0.01675781 2.41570312 -0.03351562 3.66015625 -0.05078125 C7.26603932 0.34891735 8.4288122 0.76039066 10.9375 3.3125 C11.39160156 6.03979492 11.39160156 6.03979492 11.328125 9.29296875 C11.30878906 11.03803711 11.30878906 11.03803711 11.2890625 12.81835938 C11.25554687 14.03330078 11.22203125 15.24824219 11.1875 16.5 C11.16945313 17.72654297 11.15140625 18.95308594 11.1328125 20.21679688 C11.08561124 23.24947759 11.01977677 26.28060087 10.9375 29.3125 C4.79994822 32.75062336 -0.14699866 33.13975755 -7.0625 32.3125 C-12.38400635 30.60614742 -16.08689171 26.95094821 -19.0625 22.3125 C-20.35531174 17.8674621 -20.4553518 14.4474052 -18.9375 10.0625 C-13.75645397 2.46363249 -9.11210433 0.0292367 0 0 Z " fill="#E4E4E4" transform="translate(89.0625,48.6875)"/>
<path d="M0 0 C1.2684375 1.0209375 1.2684375 1.0209375 2.5625 2.0625 C7.7274338 8.2869074 11.62887359 15.83521901 12 24 C9 26 9 26 5 26 C5.19916016 27.03447266 5.19916016 27.03447266 5.40234375 28.08984375 C6.52303013 34.05320412 7.40604773 39.96148529 8 46 C6.42445965 43.11371599 5.53723627 40.46657616 4.875 37.25 C4.62363281 36.05117187 4.62363281 36.05117187 4.3671875 34.828125 C4.18542969 33.92320313 4.18542969 33.92320313 4 33 C3.32453125 33.20496094 2.6490625 33.40992188 1.953125 33.62109375 C1.06109375 33.89050781 0.1690625 34.15992188 -0.75 34.4375 C-1.63171875 34.70433594 -2.5134375 34.97117188 -3.421875 35.24609375 C-5.60565835 35.88468494 -7.78835498 36.46775833 -10 37 C-7.80820878 32.49465137 -5.64208867 30.83749343 -1 29 C-0.01 29 0.98 29 2 29 C2 28.01 2 27.02 2 26 C-2.72314313 25.22887459 -7.21521178 24.90235126 -12 25 C-10.68 24.34 -9.36 23.68 -8 23 C-10.97 21.35 -13.94 19.7 -17 18 C-17.33 18.66 -17.66 19.32 -18 20 C-18.66 18.68 -19.32 17.36 -20 16 C-21.98 16.33 -23.96 16.66 -26 17 C-23.35478068 14.35478068 -20.33828651 13.55457481 -16.875 12.375 C-15.88693359 12.03082031 -15.88693359 12.03082031 -14.87890625 11.6796875 C-13.25438774 11.11463758 -11.62742029 10.55663723 -10 10 C-11.3089572 6.87802522 -11.3089572 6.87802522 -14 5 C-14 4.01 -14 3.02 -14 2 C-14.53625 1.773125 -15.0725 1.54625 -15.625 1.3125 C-18 0 -18 0 -20.5625 -2.6875 C-22.72699589 -4.57731367 -23.667521 -4.99598213 -26.5859375 -5.03125 C-28.49280897 -4.80138056 -30.39676811 -4.54596864 -32.296875 -4.265625 C-36.02443084 -3.89933339 -38.52994229 -4.68908931 -42 -6 C-43.20628008 -3.66785852 -44.1654738 -1.50357861 -45 1 C-45.66 -0.98 -46.32 -2.96 -47 -5 C-44.64031256 -7.09749995 -43.45383006 -7.96905704 -40.25 -8.1875 C-39.13625 -8.0946875 -39.13625 -8.0946875 -38 -8 C-37.67 -8.66 -37.34 -9.32 -37 -10 C-22.57794048 -12.65365895 -11.29748972 -9.1136966 0 0 Z " fill="#625C72" transform="translate(57,22)"/>
<path d="M0 0 C9.70186168 -0.65040413 17.82899626 1.19357263 27 4 C27.33 2.68 27.66 1.36 28 0 C29.98 0 31.96 0 34 0 C33.505 0.928125 33.01 1.85625 32.5 2.8125 C30.78710148 5.86527516 30.78710148 5.86527516 31 9 C31.99 9 32.98 9 34 9 C34 9.66 34 10.32 34 11 C34.598125 11.0825 35.19625 11.165 35.8125 11.25 C38 12 38 12 39.4375 13.9375 C40.84448276 16.21197479 40.84448276 16.21197479 43.4375 16.75 C47.36650497 18.66658779 48.37277901 22.09103339 50 26 C48.68 26 47.36 26 46 26 C44.87421172 24.87421172 43.75553558 23.74032493 42.67578125 22.5703125 C36.88351407 17.1425936 29.05728717 12.17193487 20.94433594 11.94165039 C18.80722202 12.0237905 16.69217727 12.18015304 14.5625 12.375 C13.46518555 12.46007812 13.46518555 12.46007812 12.34570312 12.546875 C10.56288714 12.6867037 8.78127618 12.84175938 7 13 C7 13.66 7 14.32 7 15 C6.195625 14.87625 5.39125 14.7525 4.5625 14.625 C-2.41680684 15.35966388 -7.67919179 20.74335344 -13 25 C-13 19.06 -13 13.12 -13 7 C-4 2.5 -4 2.5 0 2 C0 1.34 0 0.68 0 0 Z " fill="#4E4862" transform="translate(13,0)"/>
<path d="M0 0 C9.71428571 3.71428571 9.71428571 3.71428571 12 6 C14.32817964 6.36760731 16.6618385 6.70241581 19 7 C19.33 8.65 19.66 10.3 20 12 C18.4221875 12.0928125 18.4221875 12.0928125 16.8125 12.1875 C12.3708265 13.13408616 10.88406243 14.59156258 8 18 C9.216875 17.505 10.43375 17.01 11.6875 16.5 C14.92486738 15.27520559 17.50099357 14.67196815 21 15 C23.4075699 20.86845162 24.15225354 26.46171201 22.171875 32.54296875 C19.53459596 38.73270202 19.53459596 38.73270202 17 40 C15.68 37.03 14.36 34.06 13 31 C12.67 32.0725 12.34 33.145 12 34.25 C10.28143765 38.27634608 7.94338685 39.713037 4.00390625 41.41796875 C1.35303757 42.18790916 -0.44180389 42.00777422 -3 41 C-3.33 40.67 -3.66 40.34 -4 40 C-3.4 33.4 -3.4 33.4 -1 31 C1.33333333 31 3.66666667 31 6 31 C6.99 30.34 7.98 29.68 9 29 C8.3503125 28.31292969 7.700625 27.62585938 7.03125 26.91796875 C6.1959375 26.01691406 5.360625 25.11585937 4.5 24.1875 C3.6646875 23.29417969 2.829375 22.40085937 1.96875 21.48046875 C0 19 0 19 0 16 C1.65 15.67 3.3 15.34 5 15 C4.6390625 14.08476563 4.278125 13.16953125 3.90625 12.2265625 C3.4421875 11.03804687 2.978125 9.84953125 2.5 8.625 C1.80390625 6.84996094 1.80390625 6.84996094 1.09375 5.0390625 C0 2 0 2 0 0 Z " fill="#817085" transform="translate(40,40)"/>
<path d="M0 0 C8.64290661 0.03608729 14.39647291 2.39647291 20.53125 8.53125 C25.74384137 15.01520512 28.32966792 23.78272186 28 32 C29.98567708 32.1953125 31.97135417 32.390625 33.95703125 32.5859375 C36 33 36 33 39 35 C38.505 35.99 38.505 35.99 38 37 C37.01 36.34 36.02 35.68 35 35 C31.77225484 34.68067718 31.77225484 34.68067718 28.1875 34.75 C26.98480469 34.74484375 25.78210938 34.7396875 24.54296875 34.734375 C21.03618645 34.99728701 18.26778815 35.73892402 15 37 C12.92624113 32.60851064 12.92624113 32.60851064 13.25 29.9375 C14 28 14 28 15.26953125 26.390625 C16.49687045 22.37387853 14.29201345 19.39110658 12.4375 15.8125 C11.91446289 14.70745117 11.91446289 14.70745117 11.38085938 13.58007812 C10.36739665 11.57345885 9.39102819 9.76673447 8 8 C5.42776983 7.07981952 5.42776983 7.07981952 3 7 C0 2.96551724 0 2.96551724 0 0 Z " fill="#4A4658" transform="translate(61,15)"/>
<path d="M0 0 C2.359375 1.5234375 2.359375 1.5234375 4.75 3.375 C5.54921875 3.98085938 6.3484375 4.58671875 7.171875 5.2109375 C7.77515625 5.80132813 8.3784375 6.39171875 9 7 C9 7.99 9 8.98 9 10 C10.32 10.66 11.64 11.32 13 12 C13 13.32 13 14.64 13 16 C10.73291675 16.8655047 8.46224921 17.71759315 6.1875 18.5625 C5.54490234 18.80935547 4.90230469 19.05621094 4.24023438 19.31054688 C-0.66015625 21.11328125 -0.66015625 21.11328125 -4 20 C-5.97265625 17.85546875 -5.97265625 17.85546875 -8.0625 15.1875 C-8.75472656 14.31480469 -9.44695313 13.44210938 -10.16015625 12.54296875 C-12 10 -12 10 -13.05859375 7.73828125 C-13.93842502 5.6407425 -13.93842502 5.6407425 -17 5 C-17 4.34 -17 3.68 -17 3 C-14.92085336 2.29994051 -12.83648414 1.61537756 -10.75 0.9375 C-9.58984375 0.55464844 -8.4296875 0.17179687 -7.234375 -0.22265625 C-2.86710509 -1.27227788 -2.86710509 -1.27227788 0 0 Z " fill="#E3BE50" transform="translate(34,17)"/>
<path d="M0 0 C0.49628906 0.39832031 0.99257813 0.79664062 1.50390625 1.20703125 C5.85302633 4.59884975 9.8350929 7.06315984 15 9 C15.33 8.34 15.66 7.68 16 7 C16.66 7.33 17.32 7.66 18 8 C18 8.66 18 9.32 18 10 C24.93 10.495 24.93 10.495 32 11 C32 11.33 32 11.66 32 12 C27.545 12.495 27.545 12.495 23 13 C22.67 13.99 22.34 14.98 22 16 C22.33 16.66 22.66 17.32 23 18 C23.99 17.67 24.98 17.34 26 17 C28.6875 18.3125 28.6875 18.3125 31 20 C31 20.66 31 21.32 31 22 C27.10473501 22.1746354 23.2104781 22.28096492 19.3125 22.375 C17.65831055 22.45041016 17.65831055 22.45041016 15.97070312 22.52734375 C7.98923651 22.6720229 7.98923651 22.6720229 5.14990234 20.74316406 C1.3365359 16.30544291 0.82737196 11.93779538 0.4375 6.3125 C0.35371094 5.13300781 0.26992188 3.95351562 0.18359375 2.73828125 C0.12300781 1.83464844 0.06242187 0.93101563 0 0 Z " fill="#E6C9CB" transform="translate(17,78)"/>
<path d="M0 0 C0.33 0 0.66 0 1 0 C1 1.2375 1 2.475 1 3.75 C1.32947062 6.51853668 1.56019869 7.62460895 3.70703125 9.45703125 C7.67976036 11.57575162 7.67976036 11.57575162 12.07421875 11.71484375 C14.27850227 10.98078925 14.27850227 10.98078925 17 9 C16.9175 10.093125 16.835 11.18625 16.75 12.3125 C16.8325 13.529375 16.915 14.74625 17 16 C18.94055857 17.7476128 18.94055857 17.7476128 21 19 C16.78250781 19.07419134 12.56536189 19.1286204 8.34741211 19.16479492 C6.91277448 19.17987589 5.47818292 19.2003438 4.04370117 19.22631836 C1.98084141 19.26273437 -0.08140858 19.27973243 -2.14453125 19.29296875 C-3.38565674 19.3086792 -4.62678223 19.32438965 -5.90551758 19.34057617 C-9 19 -9 19 -10.79174805 17.5559082 C-11.38983276 16.78573364 -11.38983276 16.78573364 -12 16 C-14.09989652 14.82425289 -14.09989652 14.82425289 -16 14 C-16.33 14.66 -16.66 15.32 -17 16 C-17.66 14.68 -18.32 13.36 -19 12 C-18.34 11.01 -17.68 10.02 -17 9 C-15.08203125 8.69921875 -15.08203125 8.69921875 -12.8125 8.6875 C-7.45788232 8.28958011 -4.50687012 5.93479177 -1 2 C-0.67 1.34 -0.34 0.68 0 0 Z " fill="#33333E" transform="translate(57,81)"/>
<path d="M0 0 C2 2 2 2 2 3 C6.97906259 3.75427297 6.97906259 3.75427297 12 4 C12.66 4 13.32 4 14 4 C14.66 2.68 15.32 1.36 16 0 C16.33 3.3 16.66 6.6 17 10 C14 11 14 11 11 10 C10.67 10.33 10.34 10.66 10 11 C8.32457024 10.71395102 6.65614657 10.38218767 5 10 C5.33 10.66 5.66 11.32 6 12 C5.34 12 4.68 12 4 12 C1.64089647 16.2637281 1.64089647 16.2637281 1 21 C2.65 21 4.3 21 6 21 C6.33 20.01 6.66 19.02 7 18 C8.65 18.33 10.3 18.66 12 19 C12.33 17.35 12.66 15.7 13 14 C13.33 14 13.66 14 14 14 C14 15.65 14 17.3 14 19 C15.65 19 17.3 19 19 19 C19.33 20.65 19.66 22.3 20 24 C14.373192 27.75120533 8.61264572 27.8221605 2 27 C-1.41368139 25.76341133 -4.31425819 24.37148361 -6 21 C-4.35 21 -2.7 21 -1 21 C-1.04125 19.783125 -1.0825 18.56625 -1.125 17.3125 C-1.13754508 13.78105873 -0.59998217 11.19996434 1 8 C0.34 8 -0.32 8 -1 8 C-0.67 7.01 -0.34 6.02 0 5 C-0.33 4.01 -0.66 3.02 -1 2 C-0.67 1.34 -0.34 0.68 0 0 Z " fill="#FAFAFA" transform="translate(80,54)"/>
<path d="M0 0 C2.4075699 5.86845162 3.15225354 11.46171201 1.171875 17.54296875 C-1.46540404 23.73270202 -1.46540404 23.73270202 -4 25 C-4.31453125 24.23816406 -4.6290625 23.47632812 -4.953125 22.69140625 C-7.55183699 16.42162221 -10.20442833 10.18461666 -13 4 C-4.738041 -0.59225513 -4.738041 -0.59225513 0 0 Z " fill="#F8EEE6" transform="translate(61,55)"/>
<path d="M0 0 C0.33 0 0.66 0 1 0 C1 1.65 1 3.3 1 5 C1.99 5 2.98 5 4 5 C4 10.61 4 16.22 4 22 C3.67 21.34 3.34 20.68 3 20 C0.58354218 19.83312552 0.58354218 19.83312552 -2 20 C-2.66 20.66 -3.32 21.32 -4 22 C-4 21.34 -4 20.68 -4 20 C-5.65 20 -7.3 20 -9 20 C-9.33 20.66 -9.66 21.32 -10 22 C-11.65 22 -13.3 22 -15 22 C-15.625 20.125 -15.625 20.125 -16 18 C-15.34 17.34 -14.68 16.68 -14 16 C-13.30251417 14.68252676 -12.63040043 13.35085807 -12 12 C-12.66 11.34 -13.32 10.68 -14 10 C-13.34 9.34 -12.68 8.68 -12 8 C-12 8.66 -12 9.32 -12 10 C-11.34 10 -10.68 10 -10 10 C-9.34 9.01 -8.68 8.02 -8 7 C-8 8.65 -8 10.3 -8 12 C-7.34 10.68 -6.68 9.36 -6 8 C-6 8.66 -6 9.32 -6 10 C-4.68 10.66 -3.36 11.32 -2 12 C-2 10.35 -2 8.7 -2 7 C-1.34 8.32 -0.68 9.64 0 11 C0 7.37 0 3.74 0 0 Z " fill="#E0E0E0" transform="translate(96,53)"/>
<path d="M0 0 C-0.66 0.33 -1.32 0.66 -2 1 C-3.794375 0.2575 -3.794375 0.2575 -5.625 -0.5 C-12.55307552 -3.01412921 -19.81997919 -1.73121684 -27 -1 C-27 -0.34 -27 0.32 -27 1 C-28.2065625 0.814375 -28.2065625 0.814375 -29.4375 0.625 C-36.31118939 1.34854625 -41.83040096 6.66420725 -47 11 C-47 7.04 -47 3.08 -47 -1 C-44.03 -1.66 -41.06 -2.32 -38 -3 C-38.66 -2.34 -39.32 -1.68 -40 -1 C-36.59068103 0.13643966 -35.99664544 -0.13252236 -32.8125 -1.4375 C-32.09707031 -1.72496094 -31.38164062 -2.01242188 -30.64453125 -2.30859375 C-30.10183594 -2.53675781 -29.55914063 -2.76492187 -29 -3 C-29 -3.66 -29 -4.32 -29 -5 C-17.61210346 -8.58507854 -10.00644319 -6.22073559 0 0 Z " fill="#2D2D44" transform="translate(47,14)"/>
<path d="M0 0 C7.72719992 5.36173056 12.5271098 13.78572729 14.6953125 22.93359375 C14.79585937 23.61550781 14.89640625 24.29742187 15 25 C15.75925781 24.97679688 16.51851562 24.95359375 17.30078125 24.9296875 C18.29464844 24.91164063 19.28851563 24.89359375 20.3125 24.875 C21.29863281 24.85179688 22.28476563 24.82859375 23.30078125 24.8046875 C26 25 26 25 29 27 C28.67 27.66 28.34 28.32 28 29 C27.01 28.34 26.02 27.68 25 27 C21.77225484 26.68067718 21.77225484 26.68067718 18.1875 26.75 C16.98480469 26.74484375 15.78210938 26.7396875 14.54296875 26.734375 C11.03618645 26.99728701 8.26778815 27.73892402 5 29 C2.92624113 24.60851064 2.92624113 24.60851064 3.25 21.9375 C4 20 4 20 5.2265625 18.2890625 C6.31266403 15.85465713 6.31266403 15.85465713 4.8828125 12.87109375 C4.30273438 11.73800781 3.72265625 10.60492188 3.125 9.4375 C0 3.26457399 0 3.26457399 0 0 Z " fill="#605D71" transform="translate(71,23)"/>
<path d="M0 0 C5.56701031 2.88659794 5.56701031 2.88659794 6.875 6.25 C6.91625 6.8275 6.9575 7.405 7 8 C8.19625 7.896875 9.3925 7.79375 10.625 7.6875 C13.94061009 7.6875 15.81012922 8.14185851 18.4375 10.1875 C20.99909564 12.99900741 21.78698668 14.27226686 22 18 C21.34 18 20.68 18 20 18 C19.505 16.02 19.505 16.02 19 14 C12.30715195 11.68792522 8.4643171 12.21675236 2 15 C0.66666667 12.33333333 -0.66666667 9.66666667 -2 7 C-0.35 7 1.3 7 3 7 C3 6.34 3 5.68 3 5 C1.06318839 4.91892417 -0.8745934 4.86077525 -2.8125 4.8125 C-3.89144531 4.77769531 -4.97039063 4.74289063 -6.08203125 4.70703125 C-9.38644539 5.03879974 -9.9033898 5.60117572 -12 8 C-12.99 8 -13.98 8 -15 8 C-11.66822249 1.33644498 -7.04759215 -0.58729935 0 0 Z " fill="#36333C" transform="translate(59,1)"/>
<path d="M0 0 C0.99 0.33 1.98 0.66 3 1 C4.76001847 6.47561302 5.83601207 12.23519341 6 18 C5.67 18.33 5.34 18.66 5 19 C5.05011596 22.01151364 5.19793892 25.01181055 5.35546875 28.01953125 C5 31 5 31 3.05078125 33.38671875 C1 35 1 35 0 35 C0 23.45 0 11.9 0 0 Z " fill="#736E80" transform="translate(0,61)"/>
<path d="M0 0 C9.71428571 3.71428571 9.71428571 3.71428571 12 6 C14.32817964 6.36760731 16.6618385 6.70241581 19 7 C19.33 8.65 19.66 10.3 20 12 C18.453125 12.12375 18.453125 12.12375 16.875 12.25 C12.47024613 13.10253301 10.51487063 14.34241489 7 17 C4.05966587 11.42234327 1.46987086 6.14673271 0 0 Z " fill="#F2E7E1" transform="translate(40,40)"/>
<path d="M0 0 C1.34164079 0.2981424 2.67323492 0.64141484 4 1 C5.175625 0.87625 6.35125 0.7525 7.5625 0.625 C13.59525671 0.476747 18.39529437 4.47028998 23 8 C23 8.33 23 8.66 23 9 C19.89601022 9.08710289 16.79233452 9.14042309 13.6875 9.1875 C12.80642578 9.21263672 11.92535156 9.23777344 11.01757812 9.26367188 C9.74624023 9.27817383 9.74624023 9.27817383 8.44921875 9.29296875 C7.27879028 9.31653442 7.27879028 9.31653442 6.0847168 9.34057617 C3.47316965 8.91393274 2.70782749 7.95794977 1 6 C0.34 5.67 -0.32 5.34 -1 5 C-1 4.34 -1 3.68 -1 3 C-1.66 2.67 -2.32 2.34 -3 2 C-2.01 1.34 -1.02 0.68 0 0 Z " fill="#507BD0" transform="translate(44,91)"/>
<path d="M0 0 C0.33 0.66 0.66 1.32 1 2 C-0.24663331 2.50833591 -1.49749387 3.00631145 -2.75 3.5 C-3.44609375 3.7784375 -4.1421875 4.056875 -4.859375 4.34375 C-7 5 -7 5 -11 5 C-11.46160638 13.90981902 -11.46160638 13.90981902 -8 22 C-10.06183633 22.08150744 -12.12461349 22.1394194 -14.1875 22.1875 C-15.91033203 22.23970703 -15.91033203 22.23970703 -17.66796875 22.29296875 C-21.27915322 21.97545546 -23.12113688 21.15237035 -26 19 C-26 18.67 -26 18.34 -26 18 C-25.30132812 17.89042969 -24.60265625 17.78085938 -23.8828125 17.66796875 C-22.97273438 17.50941406 -22.06265625 17.35085937 -21.125 17.1875 C-20.22007813 17.03667969 -19.31515625 16.88585937 -18.3828125 16.73046875 C-15.65587522 16.16948699 -15.65587522 16.16948699 -14 13 C-13.54605448 10.72087062 -13.54605448 10.72087062 -13.375 8.3125 C-13.30023438 7.50425781 -13.22546875 6.69601563 -13.1484375 5.86328125 C-13.09945312 5.24839844 -13.05046875 4.63351563 -13 4 C-14.32 4 -15.64 4 -17 4 C-17.33 4.99 -17.66 5.98 -18 7 C-18 5.68 -18 4.36 -18 3 C-18.99 3.33 -19.98 3.66 -21 4 C-21 3.34 -21 2.68 -21 2 C-19.90300781 2.02320312 -18.80601563 2.04640625 -17.67578125 2.0703125 C-16.221361 2.08907921 -14.76693336 2.10727844 -13.3125 2.125 C-12.59126953 2.14175781 -11.87003906 2.15851563 -11.12695312 2.17578125 C-6.95123219 2.21391569 -3.7505862 1.8789919 0 0 Z " fill="#545461" transform="translate(99,78)"/>
<path d="M0 0 C1.921875 1.41015625 1.921875 1.41015625 3.75 3.0625 C4.67039062 3.88427734 4.67039062 3.88427734 5.609375 4.72265625 C6.06828125 5.14417969 6.5271875 5.56570312 7 6 C2.74938644 7.41687119 0.28148375 6.19320039 -4 5 C-4 4.34 -4 3.68 -4 3 C-4.99 3.33 -5.98 3.66 -7 4 C-7 7.3 -7 10.6 -7 14 C-12.46875 9.5078125 -12.46875 9.5078125 -14 8 C-14 7.34 -14 6.68 -14 6 C-14.99 5.67 -15.98 5.34 -17 5 C-17 4.34 -17 3.68 -17 3 C-14.92085336 2.29994051 -12.83648414 1.61537756 -10.75 0.9375 C-9.58984375 0.55464844 -8.4296875 0.17179687 -7.234375 -0.22265625 C-2.84826126 -1.27680677 -2.84826126 -1.27680677 0 0 Z " fill="#BAB5B8" transform="translate(34,17)"/>
<path d="M0 0 C1.65 0.33 3.3 0.66 5 1 C4.67 3.31 4.34 5.62 4 8 C3.01 8.33 2.02 8.66 1 9 C1.33 10.98 1.66 12.96 2 15 C1.01 15.495 1.01 15.495 0 16 C0 17.98 0 19.96 0 22 C-3.26889976 19.57468728 -4.3550262 17.55007915 -4.9375 13.625 C-5.34802195 7.95233307 -3.07459802 4.61189703 0 0 Z " fill="#F7F7F7" transform="translate(74,53)"/>
<path d="M0 0 C0.87539503 2.52891898 0.99463262 4.0310808 0.53344727 6.70166016 C-0.03949934 10.24422704 -0.11298724 13.56098537 -0.09765625 17.1484375 C-0.0962413 17.80582916 -0.09482635 18.46322083 -0.09336853 19.14053345 C-0.08781762 21.21873731 -0.07527465 23.29682927 -0.0625 25.375 C-0.05747864 26.79296718 -0.05291685 28.21093607 -0.04882812 29.62890625 C-0.03786437 33.08597322 -0.02063421 36.54297567 0 40 C-0.99 39.67 -1.98 39.34 -3 39 C-3.07413521 33.92801112 -3.12859451 28.85633732 -3.16479492 23.78393555 C-3.17988516 22.05829373 -3.20035975 20.33269028 -3.22631836 18.60717773 C-3.26269209 16.12734512 -3.27972359 13.64801936 -3.29296875 11.16796875 C-3.30845261 10.39599655 -3.32393646 9.62402435 -3.33988953 8.82865906 C-3.34158031 3.45230967 -3.34158031 3.45230967 -1.48168945 0.98950195 C-0.99273193 0.66296631 -0.50377441 0.33643066 0 0 Z " fill="#524C60" transform="translate(3,22)"/>
<path d="M0 0 C0.99 0 1.98 0 3 0 C3.50509208 2.24886238 4.00389179 4.49913869 4.5 6.75 C4.7784375 8.00296875 5.056875 9.2559375 5.34375 10.546875 C6 14 6 14 6 18 C3.59242867 20.59276913 2.31246095 20.98197341 -1.25 21.1875 C-2.61125 21.0946875 -2.61125 21.0946875 -4 21 C-3.36453813 16.29758215 -3.36453813 16.29758215 -1.46875 14.75 C0.78048102 12.07006517 0.28911936 9.73368499 0.1875 6.3125 C0.16042969 5.13300781 0.13335938 3.95351562 0.10546875 2.73828125 C0.07066406 1.83464844 0.03585938 0.93101563 0 0 Z " fill="#302E3B" transform="translate(4,79)"/>
<path d="M0 0 C0.33 0 0.66 0 1 0 C1.33 3.3 1.66 6.6 2 10 C-1.18134083 12.12089388 -1.93403843 12.23259853 -5.5625 12.125 C-6.74005859 12.09792969 -6.74005859 12.09792969 -7.94140625 12.0703125 C-8.62074219 12.04710938 -9.30007812 12.02390625 -10 12 C-12.50320403 12 -13.85118612 12.75230162 -16 14 C-16.33 14.66 -16.66 15.32 -17 16 C-17.66 14.68 -18.32 13.36 -19 12 C-18.34 11.01 -17.68 10.02 -17 9 C-15.08203125 8.69921875 -15.08203125 8.69921875 -12.8125 8.6875 C-7.45788232 8.28958011 -4.50687012 5.93479177 -1 2 C-0.67 1.34 -0.34 0.68 0 0 Z " fill="#34333E" transform="translate(57,81)"/>
<path d="M0 0 C0.99 0.33 1.98 0.66 3 1 C2.67 2.65 2.34 4.3 2 6 C2.99 6.33 3.98 6.66 5 7 C3.68 7 2.36 7 1 7 C1 7.66 1 8.32 1 9 C1.66 9 2.32 9 3 9 C2.34 13.29 1.68 17.58 1 22 C-0.65 22 -2.3 22 -4 22 C-4.625 19.125 -4.625 19.125 -5 16 C-4.34 15.34 -3.68 14.68 -3 14 C-2.83312552 11.41645782 -2.83312552 11.41645782 -3 9 C-2.34 8.67 -1.68 8.34 -1 8 C-1.020625 7.236875 -1.04125 6.47375 -1.0625 5.6875 C-1 3 -1 3 0 0 Z " fill="#C4C4C4" transform="translate(78,53)"/>
<path d="M0 0 C-0.99 0.495 -0.99 0.495 -2 1 C1.47823115 2.15941038 3.45895578 1.70820884 7 1 C3.46662649 3.90983701 -0.19386046 6.46257364 -4 9 C-5.68083079 10.31543279 -7.3524116 11.64316249 -9 13 C-9 9.04 -9 5.08 -9 1 C-3.375 -1.125 -3.375 -1.125 0 0 Z " fill="#28283E" transform="translate(9,12)"/>
<path d="M0 0 C2.31 0 4.62 0 7 0 C6.34 0.66 5.68 1.32 5 2 C4.62368027 7.55071605 5.38455523 11.64883921 7 17 C7.125 19.9375 7.125 19.9375 7 22 C5.42445965 19.11371599 4.53723627 16.46657616 3.875 13.25 C3.70742188 12.45078125 3.53984375 11.6515625 3.3671875 10.828125 C3.24601562 10.22484375 3.12484375 9.6215625 3 9 C2.32453125 9.20496094 1.6490625 9.40992188 0.953125 9.62109375 C0.06109375 9.89050781 -0.8309375 10.15992188 -1.75 10.4375 C-3.07257812 10.83775391 -3.07257812 10.83775391 -4.421875 11.24609375 C-6.60565835 11.88468494 -8.78835498 12.46775833 -11 13 C-8.80820878 8.49465137 -6.64208867 6.83749343 -2 5 C-1.01 5 -0.02 5 1 5 C0.67 3.35 0.34 1.7 0 0 Z " fill="#493744" transform="translate(58,46)"/>
<path d="M0 0 C2.125 0.9375 2.125 0.9375 4 2 C4 3.32 4 4.64 4 6 C1.73291675 6.8655047 -0.53775079 7.71759315 -2.8125 8.5625 C-3.45509766 8.80935547 -4.09769531 9.05621094 -4.75976562 9.31054688 C-9.66015625 11.11328125 -9.66015625 11.11328125 -13 10 C-14.1875 7.9375 -14.1875 7.9375 -15 6 C-14.34 6 -13.68 6 -13 6 C-12.67 5.34 -12.34 4.68 -12 4 C-10.02 4.66 -8.04 5.32 -6 6 C-6 5.34 -6 4.68 -6 4 C-4.68 4 -3.36 4 -2 4 C-2 3.01 -2 2.02 -2 1 C-1.34 0.67 -0.68 0.34 0 0 Z " fill="#E1CBD5" transform="translate(43,27)"/>
<path d="M0 0 C1.98 0 3.96 0 6 0 C6 2.97 6 5.94 6 9 C5.67 8.34 5.34 7.68 5 7 C3.35 7 1.7 7 0 7 C-0.33 7.66 -0.66 8.32 -1 9 C-2.65 9 -4.3 9 -6 9 C-6.33 7.68 -6.66 6.36 -7 5 C-3.375 2 -3.375 2 0 2 C0 1.34 0 0.68 0 0 Z " fill="#E5E5E5" transform="translate(87,66)"/>
<path d="M0 0 C3.4375 1.625 3.4375 1.625 6 4 C6.375 7.25 6.375 7.25 6 10 C4.5 8.625 4.5 8.625 3 7 C3 6.34 3 5.68 3 5 C1.06318839 4.91892417 -0.8745934 4.86077525 -2.8125 4.8125 C-3.89144531 4.77769531 -4.97039063 4.74289063 -6.08203125 4.70703125 C-9.38644539 5.03879974 -9.9033898 5.60117572 -12 8 C-12.99 8 -13.98 8 -15 8 C-11.66822249 1.33644498 -7.04759215 -0.58729935 0 0 Z " fill="#484452" transform="translate(59,1)"/>
<path d="M0 0 C0.99 0.33 1.98 0.66 3 1 C4.79506837 6.58465714 5.4873357 12.17181635 6 18 C4.02 17.01 2.04 16.02 0 15 C0 10.05 0 5.1 0 0 Z " fill="#E9CFD0" transform="translate(0,61)"/>
<path d="M0 0 C2.30859375 1.0546875 2.30859375 1.0546875 4 2 C4 2.33 4 2.66 4 3 C2.97519531 3.12117188 1.95039062 3.24234375 0.89453125 3.3671875 C-0.46618979 3.53610459 -1.8268645 3.7053952 -3.1875 3.875 C-3.86103516 3.95363281 -4.53457031 4.03226562 -5.22851562 4.11328125 C-9.10327484 4.60471413 -12.45084723 5.35980901 -16 7 C-15.69389719 4.14304048 -14.93065009 2.91722752 -13.0625 0.6875 C-8.63460876 -1.75235844 -4.83285075 -1.11587774 0 0 Z " fill="#564647" transform="translate(32,61)"/>
<path d="M0 0 C1.37478516 0.01740234 1.37478516 0.01740234 2.77734375 0.03515625 C3.69644531 0.04417969 4.61554687 0.05320312 5.5625 0.0625 C6.27277344 0.07410156 6.98304687 0.08570312 7.71484375 0.09765625 C8.04484375 1.41765625 8.37484375 2.73765625 8.71484375 4.09765625 C1.42912946 7.66908482 1.42912946 7.66908482 -3.28515625 6.09765625 C-3.32787725 4.4315372 -3.32579457 2.7638274 -3.28515625 1.09765625 C-2.28515625 0.09765625 -2.28515625 0.09765625 0 0 Z " fill="#DE748C" transform="translate(40.28515625,74.90234375)"/>
<path d="M0 0 C0.33 2.31 0.66 4.62 1 7 C0.01 7.495 0.01 7.495 -1 8 C-1.33 7.34 -1.66 6.68 -2 6 C-5.3 6 -8.6 6 -12 6 C-12.66 7.32 -13.32 8.64 -14 10 C-13.25 3.25 -13.25 3.25 -11 1 C-8.6670386 0.95833998 -6.3329614 0.95833998 -4 1 C-2 0 -2 0 0 0 Z " fill="#974959" transform="translate(50,70)"/>
<path d="M0 0 C3.59634744 3.49359465 6.83451967 7.11098131 10 11 C6.88801935 9.50163895 3.9465385 7.80066242 1 6 C0.814375 7.6396875 0.814375 7.6396875 0.625 9.3125 C0 13 0 13 -2 16 C-1.34 16.33 -0.68 16.66 0 17 C-1 18 -1 18 -3.5625 18.0625 C-4.366875 18.041875 -5.17125 18.02125 -6 18 C-5.65066406 17.3709375 -5.30132812 16.741875 -4.94140625 16.09375 C-2.01558215 10.59021685 -0.34617589 6.23116607 0 0 Z " fill="#DDBFC2" transform="translate(20,39)"/>
<path d="M0 0 C1.32 0 2.64 0 4 0 C4 2.97 4 5.94 4 9 C0 11 0 11 -2.25 10.625 C-2.8275 10.41875 -3.405 10.2125 -4 10 C-3.525625 9.0925 -3.05125 8.185 -2.5625 7.25 C-1.35371179 4.73572051 -0.52006114 2.70431791 0 0 Z " fill="#7C8093" transform="translate(82,82)"/>
<path d="M0 0 C9.71428571 3.71428571 9.71428571 3.71428571 12 6 C13.32594105 6.36162029 14.65938457 6.69728039 16 7 C15.34 7 14.68 7 14 7 C14 7.66 14 8.32 14 9 C12.3745692 8.85904936 10.74965949 8.71207913 9.125 8.5625 C8.22007813 8.48128906 7.31515625 8.40007813 6.3828125 8.31640625 C4 8 4 8 2 7 C1.26924352 4.6859378 0.59861742 2.35171131 0 0 Z " fill="#DFC8C8" transform="translate(40,40)"/>
<path d="M0 0 C0.33 0 0.66 0 1 0 C1 1.65 1 3.3 1 5 C1.66 3.68 2.32 2.36 3 1 C3 1.66 3 2.32 3 3 C4.32 3.66 5.64 4.32 7 5 C7 3.35 7 1.7 7 0 C7.33 0 7.66 0 8 0 C8.33 1.98 8.66 3.96 9 6 C5.52176885 7.15941038 3.54104422 6.70820884 0 6 C0 6.66 0 7.32 0 8 C-0.66 8.66 -1.32 9.32 -2 10 C-2.99 9.67 -3.98 9.34 -5 9 C-4.34 7.68 -3.68 6.36 -3 5 C-3.66 4.34 -4.32 3.68 -5 3 C-4.34 2.34 -3.68 1.68 -3 1 C-3 1.66 -3 2.32 -3 3 C-2.34 3 -1.68 3 -1 3 C-0.67 2.01 -0.34 1.02 0 0 Z " fill="#C7C7C7" transform="translate(87,60)"/>
<path d="M0 0 C1.98 0 3.96 0 6 0 C6.33 3.3 6.66 6.6 7 10 C6.01 10.33 5.02 10.66 4 11 C3.32591692 9.73308493 2.66099503 8.46129251 2 7.1875 C1.62875 6.47980469 1.2575 5.77210937 0.875 5.04296875 C0 3 0 3 0 0 Z " fill="#121116" transform="translate(69,43)"/>
<path d="M0 0 C0.8353125 1.2375 0.8353125 1.2375 1.6875 2.5 C3.74927133 5.2745414 3.74927133 5.2745414 6.75 5.3125 C7.4925 5.209375 8.235 5.10625 9 5 C9.99 7.31 10.98 9.62 12 12 C11.01 11.67 10.02 11.34 9 11 C8.3125 8.9375 8.3125 8.9375 8 7 C6.68 7 5.36 7 4 7 C4.33 8.32 4.66 9.64 5 11 C2.60510457 10.25675659 1.29222384 9.52942646 0.06640625 7.30859375 C-0.67219923 5.55926499 -1.34049685 3.78065851 -2 2 C-1.34 2 -0.68 2 0 2 C0 1.34 0 0.68 0 0 Z " fill="#2B2C45" transform="translate(61,17)"/>
<path d="M0 0 C0.99 0 1.98 0 3 0 C3 0.66 3 1.32 3 2 C4.65 2 6.3 2 8 2 C7.67 3.32 7.34 4.64 7 6 C5.34385343 6.38218767 3.67542976 6.71395102 2 7 C1.67 6.67 1.34 6.34 1 6 C0.34 6.66 -0.32 7.32 -1 8 C-1.04241723 5.66705225 -1.04092937 3.33297433 -1 1 C-0.67 0.67 -0.34 0.34 0 0 Z " fill="#C3A059" transform="translate(27,20)"/>
<path d="M0 0 C2.31 0.66 4.62 1.32 7 2 C7.33 1.34 7.66 0.68 8 0 C8.33 1.32 8.66 2.64 9 4 C6.1875 5.5625 6.1875 5.5625 3 7 C0 6 0 6 -1.1875 3.9375 C-1.5896875 2.9784375 -1.5896875 2.9784375 -2 2 C-1.34 2 -0.68 2 0 2 C0 1.34 0 0.68 0 0 Z " fill="#E0CABD" transform="translate(30,31)"/>
<path d="M0 0 C0 3.3 0 6.6 0 10 C-6.875 4.375 -6.875 4.375 -8 1 C-2.25 -1.125 -2.25 -1.125 0 0 Z " fill="#F3F2F2" transform="translate(27,21)"/>
<path d="M0 0 C3.44118336 0 5.82757352 0.68964993 9 2 C9.33 2.99 9.66 3.98 10 5 C6.37 5 2.74 5 -1 5 C-0.67 3.35 -0.34 1.7 0 0 Z " fill="#DCD2E8" transform="translate(38,95)"/>
<path d="M0 0 C0.7734375 0.433125 0.7734375 0.433125 1.5625 0.875 C4.62356725 2.28780027 7.74944918 3.1248517 11 4 C10.34 4.66 9.68 5.32 9 6 C7.68 6 6.36 6 5 6 C4.67 6.99 4.34 7.98 4 9 C3.54625 8.525625 3.0925 8.05125 2.625 7.5625 C1.06741796 5.90972192 1.06741796 5.90972192 -1 5 C-1 4.34 -1 3.68 -1 3 C-1.66 2.67 -2.32 2.34 -3 2 C-2.01 1.34 -1.02 0.68 0 0 Z " fill="#576B9A" transform="translate(44,91)"/>
<path d="M0 0 C0.99 0.33 1.98 0.66 3 1 C2.67 1.66 2.34 2.32 2 3 C2.99 3.99 3.98 4.98 5 6 C1.66666667 5.33333333 -1.66666667 4.66666667 -5 4 C-6.20628008 6.33214148 -7.1654738 8.49642139 -8 11 C-8.66 9.02 -9.32 7.04 -10 5 C-7.64031256 2.90250005 -6.45383006 2.03094296 -3.25 1.8125 C-2.13625 1.9053125 -2.13625 1.9053125 -1 2 C-0.67 1.34 -0.34 0.68 0 0 Z " fill="#514A63" transform="translate(20,12)"/>
<path d="M0 0 C7.625 0.875 7.625 0.875 11 2 C11.33 2.99 11.66 3.98 12 5 C13.29355827 6.37195574 14.62298702 7.71182656 16 9 C12.14340838 7.55377814 8.52237006 5.78682503 4.8671875 3.90234375 C2.85335678 2.87997124 2.85335678 2.87997124 0 2 C0 1.34 0 0.68 0 0 Z " fill="#494355" transform="translate(32,11)"/>
<path d="M0 0 C1.2065625 0.0309375 1.2065625 0.0309375 2.4375 0.0625 C2.4375 1.0525 2.4375 2.0425 2.4375 3.0625 C0.98368103 3.75949552 -0.47572953 4.44483866 -1.9375 5.125 C-2.74960937 5.50785156 -3.56171875 5.89070313 -4.3984375 6.28515625 C-5.11257812 6.54167969 -5.82671875 6.79820313 -6.5625 7.0625 C-7.2225 6.7325 -7.8825 6.4025 -8.5625 6.0625 C-2.5625 0.0625 -2.5625 0.0625 0 0 Z " fill="#423335" transform="translate(55.5625,51.9375)"/>
<path d="M0 0 C0.99 0 1.98 0 3 0 C3.98386923 4.05846056 4.3148325 7.82846941 4 12 C3.01 12.66 2.02 13.32 1 14 C0.67 9.38 0.34 4.76 0 0 Z " fill="#221E24" transform="translate(4,79)"/>
<path d="M0 0 C2.7330836 2.36039038 4.00684499 4.52395748 5 8 C4.75 10.75 4.75 10.75 4 13 C3.01 13.495 3.01 13.495 2 14 C1.66179834 12.4176994 1.32964061 10.83410625 1 9.25 C0.814375 8.36828125 0.62875 7.4865625 0.4375 6.578125 C0 4 0 4 0 0 Z " fill="#EDE0DA" transform="translate(51,72)"/>
<path d="M0 0 C3.96975938 3.96975938 4.125 9.08012382 4.125 14.4375 C4.09326375 15.95857296 4.05506505 17.47959282 4 19 C1.9539332 15.93089979 1.49086694 14.19311799 0.875 10.625 C0.70742187 9.68914062 0.53984375 8.75328125 0.3671875 7.7890625 C0.02009412 5.15262977 -0.06758274 2.65503612 0 0 Z " fill="#352B2F" transform="translate(14,71)"/>
<path d="M0 0 C1.98 0.99 1.98 0.99 4 2 C4 5.96 4 9.92 4 14 C3.01 14.495 3.01 14.495 2 15 C1.34 10.05 0.68 5.1 0 0 Z " fill="#828095" transform="translate(1,78)"/>
<path d="M0 0 C2.32472205 2.85306797 3.7508258 5.54074837 5 9 C5.99 8.01 6.98 7.02 8 6 C8.33 6.99 8.66 7.98 9 9 C8.195625 9.28875 7.39125 9.5775 6.5625 9.875 C3.8673532 10.73262568 3.8673532 10.73262568 3 13 C2.30093058 11.40084119 1.61610532 9.79544955 0.9375 8.1875 C0.55464844 7.29417969 0.17179687 6.40085937 -0.22265625 5.48046875 C-1 3 -1 3 0 0 Z " fill="#6F6773" transform="translate(53,70)"/>
<path d="M0 0 C-2 1 -2 1 -3.77734375 0.4765625 C-4.84662109 0.05503906 -4.84662109 0.05503906 -5.9375 -0.375 C-11.23230694 -2.26353863 -16.41629409 -2.69733183 -22 -3 C-22 -3.33 -22 -3.66 -22 -4 C-12.88651981 -5.15024507 -7.88405696 -4.79226992 0 0 Z " fill="#222233" transform="translate(47,14)"/>
<path d="M0 0 C0 0.33 0 0.66 0 1 C-1.65 1.33 -3.3 1.66 -5 2 C-4.01 2.66 -3.02 3.32 -2 4 C-2.63808594 4.12117187 -3.27617188 4.24234375 -3.93359375 4.3671875 C-4.75988281 4.53476563 -5.58617187 4.70234375 -6.4375 4.875 C-7.26121094 5.03742187 -8.08492187 5.19984375 -8.93359375 5.3671875 C-9.61550781 5.57601563 -10.29742187 5.78484375 -11 6 C-11.33 6.66 -11.66 7.32 -12 8 C-12.99 8 -13.98 8 -15 8 C-11.5462356 1.0924712 -7.13117793 -0.13205885 0 0 Z " fill="#29252B" transform="translate(59,1)"/>
<path d="M0 0 C1.65 0 3.3 0 5 0 C5.99 2.31 6.98 4.62 8 7 C6.35 7.33 4.7 7.66 3 8 C2.01 5.36 1.02 2.72 0 0 Z " fill="#2D304B" transform="translate(57,8)"/>
<path d="M0 0 C0 1.32 0 2.64 0 4 C-2.64 4.99 -5.28 5.98 -8 7 C-7 3 -7 3 -5.125 1.25 C-3 0 -3 0 0 0 Z " fill="#3D262B" transform="translate(24,61)"/>
<path d="M0 0 C2 2 2 2 2.125 4.625 C2.08375 5.40875 2.0425 6.1925 2 7 C2.99 7.33 3.98 7.66 5 8 C3.35 8.66 1.7 9.32 0 10 C-2.08207071 5.59090909 -2.08207071 5.59090909 -1.6875 2.75 C-1 1 -1 1 0 0 Z " fill="#565164" transform="translate(76,42)"/>
<path d="M0 0 C3 1 3 1 4.421875 3.3984375 C4.86015625 4.38070313 5.2984375 5.36296875 5.75 6.375 C6.42289062 7.84066406 6.42289062 7.84066406 7.109375 9.3359375 C8 12 8 12 7 15 C4.99615009 11.99422513 3.73880258 9.15022736 2.375 5.8125 C1.92898437 4.72582031 1.48296875 3.63914062 1.0234375 2.51953125 C0.68570313 1.68808594 0.34796875 0.85664063 0 0 Z " fill="#100F16" transform="translate(62,27)"/>
<path d="M0 0 C3.53600465 1.91135386 5.78972846 3.62642766 8 7 C4.44219804 6.39009109 1.3171411 5.4216319 -2 4 C-2 3.34 -2 2.68 -2 2 C-1.34 2 -0.68 2 0 2 C0 1.34 0 0.68 0 0 Z " fill="#F6F6F5" transform="translate(33,17)"/>
<path d="M0 0 C0.99 0.33 1.98 0.66 3 1 C2.67 2.65 2.34 4.3 2 6 C2.99 6.33 3.98 6.66 5 7 C3.68 7 2.36 7 1 7 C1 7.66 1 8.32 1 9 C1.66 9.33 2.32 9.66 3 10 C2.34 10 1.68 10 1 10 C1 10.66 1 11.32 1 12 C0.34 12 -0.32 12 -1 12 C-1.02712066 10.56260487 -1.04645067 9.12506137 -1.0625 7.6875 C-1.07410156 6.88699219 -1.08570312 6.08648437 -1.09765625 5.26171875 C-1 3 -1 3 0 0 Z " fill="#BFBFBF" transform="translate(78,53)"/>
<path d="M0 0 C-1.485 2.475 -1.485 2.475 -3 5 C-4.32 4.67 -5.64 4.34 -7 4 C-7 3.01 -7 2.02 -7 1 C-3.375 -1.125 -3.375 -1.125 0 0 Z " fill="#EFD8D6" transform="translate(49,80)"/>
<path d="M0 0 C1.65 0 3.3 0 5 0 C5.66 1.98 6.32 3.96 7 6 C4.625 5.8125 4.625 5.8125 2 5 C0.6875 2.4375 0.6875 2.4375 0 0 Z " fill="#7E95C4" transform="translate(61,15)"/>
<path d="M0 0 C-0.33 0.66 -0.66 1.32 -1 2 C-3.3140622 2.73075648 -5.64828869 3.40138258 -8 4 C-8 2.68 -8 1.36 -8 0 C-4.71023192 -1.09658936 -3.28696233 -0.79953138 0 0 Z " fill="#7D95C4" transform="translate(19,10)"/>
<path d="M0 0 C1.14926266 0.95421808 2.29430541 1.91352045 3.4375 2.875 C4.07558594 3.40867188 4.71367188 3.94234375 5.37109375 4.4921875 C7 6 7 6 8 8 C5.69 7.67 3.38 7.34 1 7 C0.67 4.69 0.34 2.38 0 0 Z " fill="#E3C5C8" transform="translate(38,57)"/>
<path d="M0 0 C0.99 0 1.98 0 3 0 C4.75 1.8125 4.75 1.8125 6 4 C5.67 4.99 5.34 5.98 5 7 C2.5 5.75 2.5 5.75 0 4 C0 2.68 0 1.36 0 0 Z " fill="#F7EDE5" transform="translate(0,72)"/>
<path d="M0 0 C0.33 0 0.66 0 1 0 C1.33 3.3 1.66 6.6 2 10 C1.01 10.495 1.01 10.495 0 11 C-0.268125 10.38125 -0.53625 9.7625 -0.8125 9.125 C-1.95556848 6.7004767 -1.95556848 6.7004767 -5 5 C-3.68 4.67 -2.36 4.34 -1 4 C-0.67 2.68 -0.34 1.36 0 0 Z " fill="#FCFCFC" transform="translate(95,54)"/>
<path d="M0 0 C4 1 4 1 5.265625 2.84765625 C5.59046875 3.57855469 5.9153125 4.30945313 6.25 5.0625 C6.75273438 6.16271484 6.75273438 6.16271484 7.265625 7.28515625 C7.50796875 7.85105469 7.7503125 8.41695312 8 9 C7.01 9.495 7.01 9.495 6 10 C4.02 6.7 2.04 3.4 0 0 Z " fill="#463E56" transform="translate(55,17)"/>
<path d="M0 0 C2.64 0 5.28 0 8 0 C8 0.99 8 1.98 8 3 C2.25 3.125 2.25 3.125 0 2 C0 1.34 0 0.68 0 0 Z " fill="#4F77B7" transform="translate(48,92)"/>
<path d="M0 0 C0.33 0.66 0.66 1.32 1 2 C1.66 2.33 2.32 2.66 3 3 C2.34 3 1.68 3 1 3 C1 3.66 1 4.32 1 5 C2.32 5.33 3.64 5.66 5 6 C3.35 6.66 1.7 7.32 0 8 C-1.5625 5.625 -1.5625 5.625 -3 3 C-2.67 2.34 -2.34 1.68 -2 1 C-1.67 1.33 -1.34 1.66 -1 2 C-0.67 1.34 -0.34 0.68 0 0 Z " fill="#252429" transform="translate(65,7)"/>
<path d="M0 0 C1.98 0 3.96 0 6 0 C3.375 4.875 3.375 4.875 0 6 C0 4.02 0 2.04 0 0 Z " fill="#2C2C2C" transform="translate(41,0)"/>
<path d="M0 0 C1.65 0 3.3 0 5 0 C5 1.32 5 2.64 5 4 C4.34 4 3.68 4 3 4 C3 4.99 3 5.98 3 7 C2.01 6.67 1.02 6.34 0 6 C0.66 4.35 1.32 2.7 2 1 C1.34 0.67 0.68 0.34 0 0 Z " fill="#BAA47A" transform="translate(38,24)"/>
<path d="M0 0 C3.39417765 3.12621626 5.6062718 5.56541027 7 10 C5.87411986 9.04270084 4.7493285 8.08412105 3.625 7.125 C2.99851562 6.59132813 2.37203125 6.05765625 1.7265625 5.5078125 C0.44163349 4.38567993 -0.79371975 3.20628025 -2 2 C-1.34 2 -0.68 2 0 2 C0 1.34 0 0.68 0 0 Z " fill="#58506C" transform="translate(54,17)"/>
<path d="M0 0 C0 1.98 0 3.96 0 6 C-1.65 6 -3.3 6 -5 6 C-5 5.01 -5 4.02 -5 3 C-1.55555556 0 -1.55555556 0 0 0 Z " fill="#161518" transform="translate(57,83)"/>
<path d="M0 0 C0.33 0 0.66 0 1 0 C1 1.65 1 3.3 1 5 C1.99 5.33 2.98 5.66 4 6 C3.67 7.65 3.34 9.3 3 11 C2.01 11 1.02 11 0 11 C0 7.37 0 3.74 0 0 Z " fill="#BCBCBC" transform="translate(96,53)"/>
<path d="M0 0 C0.99 0.33 1.98 0.66 3 1 C2.625 3.4375 2.625 3.4375 2 6 C1.01 6.495 1.01 6.495 0 7 C-0.38133299 5.0085944 -0.71325582 3.00720923 -1 1 C-0.67 0.67 -0.34 0.34 0 0 Z " fill="#EBE2DA" transform="translate(57,73)"/>
<path d="M0 0 C0.33 0 0.66 0 1 0 C1.33 1.98 1.66 3.96 2 6 C-1 7 -1 7 -3.1875 6.0625 C-3.785625 5.711875 -4.38375 5.36125 -5 5 C-4.67 3.68 -4.34 2.36 -4 1 C-4 1.66 -4 2.32 -4 3 C-2.68 3.66 -1.36 4.32 0 5 C0 3.35 0 1.7 0 0 Z " fill="#B5B5B5" transform="translate(94,60)"/>
<path d="M0 0 C0.66 0 1.32 0 2 0 C2 0.99 2 1.98 2 3 C2.66 3 3.32 3 4 3 C4 2.34 4 1.68 4 1 C4.66 1 5.32 1 6 1 C5.67 2.32 5.34 3.64 5 5 C3.35 5 1.7 5 0 5 C0 3.35 0 1.7 0 0 Z " fill="#CFCFCF" transform="translate(75,62)"/>
<path d="M0 0 C0.99 0.33 1.98 0.66 3 1 C3 2.98 3 4.96 3 7 C2.01 7 1.02 7 0 7 C0 4.69 0 2.38 0 0 Z " fill="#FBFBFB" transform="translate(97,51)"/>
<path d="M0 0 C4.62 0 9.24 0 14 0 C13.01 0.495 13.01 0.495 12 1 C12 1.66 12 2.32 12 3 C10.37419034 2.88601335 8.74932843 2.75844341 7.125 2.625 C6.22007813 2.55539063 5.31515625 2.48578125 4.3828125 2.4140625 C2 2 2 2 0 0 Z " fill="#D2C0BF" transform="translate(42,46)"/>
<path d="M0 0 C2.02045442 0.60183749 4.02111039 1.27306096 6 2 C6.33 2.66 6.66 3.32 7 4 C4.69 4 2.38 4 0 4 C0 2.68 0 1.36 0 0 Z " fill="#588BD7" transform="translate(60,96)"/>
<path d="M0 0 C1.65 0 3.3 0 5 0 C5.33 1.65 5.66 3.3 6 5 C4.02 4.01 2.04 3.02 0 2 C0 1.34 0 0.68 0 0 Z " fill="#E8D2D1" transform="translate(54,47)"/>
<path d="M0 0 C2.0625 0.4375 2.0625 0.4375 4 1 C2.35 2.65 0.7 4.3 -1 6 C-1.042721 4.33388095 -1.04063832 2.66617115 -1 1 C-0.67 0.67 -0.34 0.34 0 0 Z " fill="#484661" transform="translate(1,14)"/>
<path d="M0 0 C1.9375 0.8125 1.9375 0.8125 4 2 C4.33 2.99 4.66 3.98 5 5 C3.35 5 1.7 5 0 5 C-0.5625 3.0625 -0.5625 3.0625 -1 1 C-0.67 0.67 -0.34 0.34 0 0 Z " fill="#AAAAAA" transform="translate(81,70)"/>
<path d="M0 0 C2.475 0.495 2.475 0.495 5 1 C5 2.32 5 3.64 5 5 C2 4 2 4 0.8125 1.9375 C0.544375 1.298125 0.27625 0.65875 0 0 Z " fill="#EEEEEE" transform="translate(89,60)"/>
<path d="M0 0 C-1.125 1.5 -1.125 1.5 -3 3 C-6.1875 3.1875 -6.1875 3.1875 -9 3 C-9 2.34 -9 1.68 -9 1 C-3.375 -1.125 -3.375 -1.125 0 0 Z " fill="#383346" transform="translate(9,12)"/>
</svg>
